<?xml version="1.0" standalone="no"?>
<!DOCTYPE svg PUBLIC "-//W3C//DTD SVG 20010904//EN"
 "http://www.w3.org/TR/2001/REC-SVG-20010904/DTD/svg10.dtd">
<svg version="1.0" xmlns="http://www.w3.org/2000/svg"
 width="877.000000pt" height="500.000000pt" viewBox="0 0 877.000000 500.000000"
 preserveAspectRatio="xMidYMid meet">

<g transform="translate(0.000000,500.000000) scale(0.100000,-0.100000)"
fill="#000000" stroke="none">
<path d="M2520 4689 l0 -54 73 -2 c73 -3 73 2 5 27 -34 12 -37 32 -5 28 36 -5
35 13 -3 27 -19 7 -43 16 -52 20 -16 6 -18 1 -18 -46z"/>
<path d="M4135 4719 c-118 -12 -307 -47 -415 -76 -395 -105 -762 -296 -984
-511 -79 -76 -83 -78 -78 -39 3 18 1 29 -3 25 -5 -5 -10 -20 -11 -34 -4 -36
-8 -38 -56 -28 -34 7 -44 14 -46 32 -3 20 -1 22 14 14 25 -14 54 -3 54 20 0
17 5 19 25 14 14 -4 25 -2 25 4 0 5 7 10 15 10 8 0 15 4 15 9 0 14 -18 23 -22
11 -1 -5 -12 -7 -23 -4 -25 6 -31 44 -8 44 10 0 13 -6 8 -17 -5 -14 -3 -15 6
-6 16 16 -19 86 -45 89 -11 2 -28 11 -39 22 -19 19 -19 20 7 15 14 -3 26 -10
26 -16 0 -6 2 -8 5 -5 11 10 -8 38 -25 38 -10 0 -23 7 -30 15 -10 12 -10 15 4
15 9 0 16 -5 16 -12 0 -6 2 -9 5 -6 3 3 -1 20 -9 39 -9 19 -15 28 -16 22 0 -7
-4 -13 -9 -13 -6 0 -9 10 -9 23 1 12 1 47 -1 77 -2 47 -4 51 -12 31 -5 -14 -7
-31 -5 -38 5 -11 -55 -137 -130 -272 -28 -51 -29 -61 -10 -61 16 0 23 -55 32
-261 6 -125 5 -126 -21 -157 -15 -18 -31 -32 -36 -32 -11 0 -12 87 -1 92 5 2
12 17 15 35 6 28 3 34 -28 52 l-34 20 15 53 c16 51 16 53 -5 66 -12 8 -21 23
-21 34 0 26 -21 18 -37 -13 -12 -23 -13 -22 -14 16 l-2 40 -6 -47 c-4 -27 -13
-54 -20 -60 -11 -11 -13 -9 -8 10 8 33 -6 26 -25 -14 -25 -49 -23 -57 12 -49
40 9 48 -14 21 -58 -14 -23 -17 -37 -10 -44 6 -6 6 -19 -1 -37 -14 -37 -13
-46 5 -46 9 0 15 6 13 13 -1 6 4 27 11 46 14 32 16 33 54 27 22 -4 44 -9 49
-12 16 -10 8 -34 -12 -34 -19 0 -20 -7 -20 -120 0 -113 -1 -120 -20 -120 -13
0 -20 7 -20 20 0 12 -9 24 -22 29 -28 11 -38 6 -38 -20 0 -12 -7 -19 -20 -19
-15 0 -20 7 -20 25 0 22 -4 25 -34 25 -34 0 -35 -1 -41 -54 -8 -59 3 -91 35
-101 18 -6 20 -15 20 -108 0 -155 -12 -357 -21 -357 -19 0 -59 76 -59 112 0
21 -4 38 -10 38 -5 0 -10 -21 -10 -47 0 -59 -17 -122 -38 -146 -9 -10 -17 -30
-18 -45 -1 -15 -3 -32 -3 -38 -2 -26 -51 -64 -83 -64 -30 0 -31 -1 -16 -16 9
-9 36 -22 60 -28 25 -6 46 -14 47 -19 2 -4 0 -34 -4 -67 -6 -49 -12 -64 -35
-84 -31 -26 -29 -36 7 -36 27 0 30 -18 7 -61 -12 -24 -18 -28 -29 -19 -7 6
-16 21 -19 33 -5 21 -40 43 -130 81 -21 9 -41 15 -43 12 -9 -9 7 -69 30 -116
38 -75 71 -121 150 -205 l75 -80 6 -75 c11 -132 8 -130 92 -51 142 133 243
186 564 296 124 43 236 84 250 91 14 8 51 38 84 67 55 51 59 56 60 103 2 48 3
50 48 71 31 15 47 30 52 47 3 14 19 32 35 40 17 9 35 31 45 56 16 40 29 49 41
30 3 -5 14 -10 24 -10 14 0 20 11 26 45 5 37 10 45 23 41 9 -3 49 -15 87 -27
149 -44 370 -185 436 -277 24 -33 34 -59 37 -97 6 -72 -14 -80 -23 -10 -3 30
-12 58 -19 62 -7 5 -21 22 -30 38 -10 17 -15 22 -12 12 5 -14 -2 -12 -24 10
-31 29 -41 45 -15 23 9 -7 18 -11 20 -8 8 8 -117 104 -170 130 -50 25 -144 53
-152 45 -2 -3 39 -35 92 -72 96 -68 126 -96 89 -81 -10 5 -66 14 -124 22 -58
8 -123 18 -145 24 -50 12 -55 12 -55 2 0 -5 35 -21 78 -36 115 -40 120 -48 27
-41 -107 9 -154 20 -211 50 -26 14 -49 25 -50 25 -2 0 -4 -23 -4 -51 0 -46 -2
-50 -20 -44 -37 12 -21 -14 28 -45 40 -25 57 -30 122 -31 41 -1 66 -4 55 -6
-11 -3 -26 -10 -33 -15 -6 -6 -52 -13 -102 -16 l-90 -5 -19 46 c-25 58 -41 68
-41 25 0 -77 -32 -124 -129 -186 l-36 -23 40 6 c90 14 230 33 233 30 1 -1 -51
-37 -115 -80 -65 -44 -153 -106 -196 -139 -43 -34 -95 -74 -115 -89 -20 -15
-44 -34 -54 -42 -9 -7 -19 -11 -22 -8 -7 7 -98 -51 -161 -102 -62 -51 -185
-129 -185 -117 0 10 203 219 262 269 21 18 63 51 94 75 31 23 52 44 46 46 -14
4 -189 -81 -233 -114 -18 -13 -36 -24 -41 -24 -4 0 -31 -18 -60 -40 -52 -39
-83 -49 -37 -11 31 25 21 35 -15 16 -15 -8 -32 -12 -37 -9 -5 3 -8 0 -7 -7 2
-6 -13 -21 -32 -33 l-35 -21 22 30 c12 17 36 44 55 61 35 33 224 175 255 192
10 6 15 14 11 17 -6 6 -193 -80 -208 -95 -3 -3 -24 -14 -47 -25 -24 -11 -43
-23 -43 -26 0 -4 -13 -12 -30 -19 -16 -7 -30 -16 -30 -21 0 -5 -5 -9 -11 -9
-6 0 -51 -36 -100 -81 -90 -82 -170 -189 -194 -259 -1 -3 -6 -16 -12 -30 -37
-88 -50 -245 -30 -360 13 -76 61 -179 121 -262 45 -63 63 -75 39 -27 -10 20
-17 72 -21 143 -5 101 -4 110 11 98 9 -8 19 -24 22 -35 7 -23 64 -144 77 -162
54 -75 150 -184 212 -237 65 -56 156 -118 173 -118 3 0 -5 15 -16 33 -41 61
-90 172 -97 217 -8 50 -6 50 56 -6 14 -13 46 -32 71 -43 25 -11 57 -31 70 -43
124 -114 245 -209 355 -280 127 -81 360 -194 519 -252 449 -160 995 -194 1460
-90 164 37 413 120 553 185 46 22 86 39 88 39 1 0 42 23 90 50 l87 50 69 -50
c38 -27 74 -50 81 -49 6 0 53 22 102 47 l90 47 5 90 c3 50 2 94 -2 100 -14 16
-10 23 50 88 110 122 207 247 281 364 l47 73 28 -29 c21 -22 26 -35 21 -48 -5
-10 -7 -24 -6 -31 1 -8 -2 -19 -8 -26 -6 -7 -7 -24 -2 -42 6 -24 13 -29 37
-29 26 0 29 3 30 35 0 19 -4 41 -9 48 -5 7 -12 44 -15 83 -4 66 -2 75 34 150
21 43 42 79 46 79 4 0 15 -11 24 -25 13 -21 15 -41 10 -118 -3 -50 -9 -111
-12 -134 -5 -35 -3 -42 14 -47 48 -15 68 26 45 95 -6 19 -13 78 -14 130 -2
100 -14 130 -66 175 l-24 20 25 80 c50 161 96 341 96 375 0 22 36 58 67 65 15
4 34 -4 62 -27 23 -18 44 -30 47 -26 3 3 -2 31 -11 63 -16 55 -16 58 2 83 18
24 31 50 39 76 15 48 24 97 24 136 0 46 0 46 43 55 l42 9 -57 33 c-59 34 -107
99 -87 119 6 6 9 28 7 49 l-3 39 -25 -24 c-14 -13 -19 -21 -12 -17 21 12 13
-14 -13 -46 -25 -30 -34 -23 -15 12 8 15 2 21 -43 43 l-52 24 -14 79 c-7 44
-15 90 -18 104 -3 19 7 40 42 85 26 33 51 69 56 80 6 11 16 31 24 45 10 17 11
26 3 31 -6 4 -2 10 11 14 21 6 30 35 11 35 -5 0 -10 5 -10 10 0 6 6 10 13 10
19 0 39 45 47 103 l7 49 -31 -6 c-81 -15 -201 -63 -228 -90 -16 -16 -30 -27
-32 -25 -2 2 -22 40 -44 84 -22 44 -67 127 -101 185 -54 94 -58 105 -40 108
18 3 17 6 -11 42 -16 21 -30 41 -30 44 0 12 65 6 93 -9 29 -15 29 -11 -6 37
-25 34 -16 62 15 53 13 -4 36 -13 52 -21 38 -18 42 -18 24 4 -22 25 -50 82
-41 83 25 4 61 -6 99 -26 24 -13 44 -20 44 -15 0 9 -100 123 -112 128 -5 2 -8
15 -8 29 0 24 2 25 41 19 22 -4 52 -14 67 -23 34 -21 32 -19 -57 71 -40 41
-71 81 -69 88 5 14 52 16 83 3 18 -7 17 -5 -4 18 -14 15 -28 27 -33 27 -10 0
-19 7 -73 54 l-40 36 25 20 c14 11 32 17 40 15 10 -4 10 -1 -3 9 -9 7 -39 16
-65 20 -80 10 -117 51 -72 78 28 18 25 30 -5 22 -30 -7 -126 16 -132 32 -2 7
0 22 7 33 10 19 9 20 -15 11 -57 -22 -112 -10 -126 27 -7 19 -12 22 -27 14
-18 -9 -69 -4 -87 9 -5 4 -48 11 -95 14 l-85 6 50 -14 c123 -35 265 -141 324
-242 21 -35 15 -42 -20 -24 -33 18 -21 -7 21 -43 38 -32 40 -37 41 -93 0 -42
3 -53 9 -39 6 14 9 -2 9 -52 l1 -72 -45 -37 c-25 -20 -48 -46 -51 -58 -4 -15
-18 -26 -47 -35 -23 -6 -48 -14 -54 -17 -29 -13 -10 15 20 29 28 14 63 51 111
117 10 13 9 13 -6 1 -16 -12 -25 -7 -84 45 -161 144 -273 229 -404 308 -292
175 -713 311 -1067 346 -116 11 -395 11 -508 -1z m81 -185 c13 -51 -2 -123
-33 -162 l-30 -37 34 -49 c18 -26 33 -57 33 -67 0 -15 7 -19 34 -19 78 0 146
-72 146 -154 0 -28 4 -45 10 -41 5 3 6 13 3 22 -4 11 -3 14 5 9 7 -4 27 4 45
18 20 16 47 26 66 26 27 0 30 2 22 18 -12 22 21 122 46 137 102 62 117 65 196
35 112 -42 165 -154 122 -257 -19 -44 -19 -43 4 -43 11 0 33 -11 49 -25 23
-19 37 -24 60 -19 17 4 44 2 61 -4 28 -10 30 -9 41 23 24 74 126 128 201 108
l40 -10 -3 31 c-5 88 26 151 95 188 18 9 26 17 18 18 -8 0 -12 2 -9 5 18 19
201 -79 343 -183 98 -71 236 -192 230 -201 -7 -12 -55 -20 -55 -10 0 4 5 11
10 14 6 3 10 11 10 17 0 7 -16 8 -47 3 l-48 -7 19 21 c26 28 14 37 -34 24 -37
-9 -54 -3 -30 12 26 16 6 24 -26 10 -47 -19 -46 -20 -38 11 6 23 5 25 -12 15
-11 -5 -26 -15 -34 -22 -12 -9 -12 -10 5 -5 16 5 15 2 -6 -16 -55 -48 -104
-83 -112 -80 -4 1 -5 -9 -1 -22 4 -19 -1 -30 -20 -47 -14 -12 -26 -32 -26 -43
-1 -19 -2 -19 -15 4 -14 24 -14 24 -15 3 0 -13 13 -32 33 -47 l32 -26 5 33 c4
22 13 36 33 45 42 20 55 2 27 -36 -17 -23 -21 -38 -16 -58 l7 -27 20 29 c72
107 79 108 74 12 -2 -44 1 -55 11 -51 18 7 19 -28 2 -46 -11 -11 -9 -12 10 -6
27 8 28 1 2 -27 -11 -12 -20 -28 -20 -36 0 -12 -15 -14 -89 -9 -94 6 -122 17
-142 54 -18 33 -29 28 -29 -12 0 -39 -1 -39 -47 -26 -39 11 -50 0 -23 -24 27
-24 26 -27 -15 -49 -19 -11 -35 -25 -35 -33 0 -18 -51 -83 -65 -83 -13 0 -67
72 -149 195 -106 161 -151 227 -157 230 -7 5 -1 -80 11 -179 9 -67 8 -70 -18
-95 -15 -15 -37 -40 -49 -56 l-23 -30 7 29 c14 64 -24 16 -89 -112 -71 -142
-71 -144 4 -106 27 14 31 23 43 95 5 35 11 40 97 83 50 26 93 44 96 42 7 -8
20 -140 14 -149 -2 -5 -9 -4 -15 2 -16 16 -37 13 -37 -5 0 -9 9 -27 20 -41 25
-32 25 -50 3 -77 -17 -20 -17 -20 0 -7 9 7 17 11 17 8 0 -10 101 40 102 49 0
5 21 21 47 36 26 16 38 28 29 28 -29 0 -20 15 16 28 19 7 49 31 68 53 50 62
98 109 110 109 18 0 4 -17 -95 -125 -54 -58 -140 -136 -190 -174 -103 -78
-258 -221 -239 -221 12 0 123 49 177 78 27 14 29 14 17 0 -19 -23 -62 -111
-57 -116 2 -3 29 13 60 34 84 59 114 76 123 70 5 -3 12 -24 16 -46 3 -22 10
-40 15 -40 5 0 23 23 40 50 17 28 37 50 45 50 8 0 23 -18 33 -40 21 -45 29
-49 38 -17 14 48 37 87 50 87 8 0 27 -18 41 -40 15 -22 31 -40 35 -40 5 0 9
24 9 54 0 31 5 58 13 64 15 12 46 1 71 -27 27 -29 36 -18 29 38 -7 58 5 69 49
47 46 -23 50 -21 46 32 l-3 47 52 -3 52 -3 -10 31 c-20 56 3 72 70 49 17 -6
31 -15 31 -20 0 -17 -123 -160 -129 -150 -8 12 -20 2 -96 -77 -66 -69 -68 -80
-4 -26 23 19 55 42 71 50 16 8 26 19 23 24 -4 6 1 10 10 10 8 0 23 5 33 11 25
15 92 -14 92 -41 0 -26 17 -34 23 -11 2 11 15 24 27 31 l23 12 -21 -35 c-22
-35 -31 -93 -12 -82 12 7 12 3 4 -20 -5 -13 -13 -7 -35 29 -16 25 -35 46 -42
46 -6 0 -20 -20 -30 -45 -11 -25 -23 -43 -27 -40 -5 3 -2 18 6 33 16 32 18 52
4 52 -5 0 -15 -20 -21 -45 -10 -38 -15 -45 -31 -39 -20 6 -48 -11 -48 -29 0
-7 4 -7 12 1 17 17 29 15 22 -3 -6 -15 -32 -15 -130 0 -30 5 -65 -17 -51 -32
4 -3 9 2 13 11 3 9 10 16 15 16 13 0 11 -28 -2 -32 -5 -2 -13 -24 -16 -48 -3
-25 -11 -54 -16 -65 -6 -11 -10 -29 -10 -40 1 -16 1 -17 -3 -2 -5 15 -8 16
-26 3 -18 -13 -24 -12 -51 7 l-29 22 -22 -30 c-35 -49 -79 -91 -83 -79 -2 7
-17 -1 -33 -17 -40 -41 -64 -38 -83 11 -17 44 -31 50 -47 21 -13 -25 -13 -42
1 -18 15 26 30 20 23 -10 -13 -49 -79 -108 -94 -84 -5 9 -10 8 -19 -3 -11 -13
-9 -16 13 -22 24 -6 24 -7 10 -29 -8 -13 -33 -35 -54 -50 -45 -31 -52 -55 -16
-55 19 0 23 -4 19 -20 -7 -25 -64 -28 -109 -6 -16 8 -41 18 -57 21 l-27 7 39
-68 39 -69 -27 -17 c-14 -10 -37 -18 -51 -18 -19 0 -22 2 -10 10 12 7 12 12
-4 29 -11 12 -18 35 -18 63 0 63 -13 80 -39 49 -11 -14 -16 -28 -11 -33 15
-15 1 -67 -19 -73 -21 -7 -26 -25 -7 -25 9 0 9 -3 1 -11 -23 -23 -40 -1 -53
65 -13 71 -19 80 -45 70 -13 -6 -14 -9 -3 -16 9 -7 7 -8 -10 -5 -12 3 -20 1
-16 -4 3 -5 1 -9 -5 -9 -25 0 -19 21 10 36 18 9 41 24 51 34 10 9 37 25 58 35
26 12 53 37 79 75 23 32 41 61 41 66 0 14 -143 -6 -174 -25 -17 -11 -58 -33
-90 -51 -56 -30 -61 -31 -73 -14 -7 10 -13 25 -13 35 0 9 -7 19 -15 23 -11 4
-15 -2 -15 -23 0 -39 -6 -41 -49 -18 -40 22 -41 23 -68 195 l-5 34 76 -4 c42
-2 76 -2 76 0 0 2 -20 35 -45 73 -25 38 -45 73 -45 77 0 5 -9 17 -19 29 -10
11 -26 34 -35 51 -19 37 -25 39 -59 12 -14 -11 -28 -20 -30 -20 -3 0 -24 39
-46 88 -23 48 -51 105 -62 127 -12 22 -40 75 -62 118 l-42 78 -18 -26 c-10
-14 -22 -25 -26 -25 -4 0 -15 33 -25 74 -12 50 -25 81 -42 97 -13 13 -50 63
-81 111 -31 48 -57 88 -59 88 -1 0 -23 -30 -49 -66 l-48 -66 -24 31 c-14 17
-29 29 -34 26 -5 -4 -6 0 -3 8 3 8 -3 20 -12 28 -15 12 -18 12 -26 -1 -5 -8
-44 -73 -88 -144 -44 -71 -81 -134 -84 -140 -3 -7 -10 -4 -20 8 -29 36 -138
146 -145 146 -3 0 -31 -44 -61 -98 -54 -95 -81 -118 -88 -77 -3 11 -10 24 -18
28 -8 4 -14 23 -14 41 0 17 -6 44 -12 59 -14 29 -38 37 -38 12 0 -8 -4 -15
-10 -15 -16 0 1 123 19 136 13 11 13 16 -2 50 -10 22 -35 59 -56 83 -30 35
-40 55 -45 95 -14 115 -5 146 41 146 13 0 23 4 23 9 0 5 10 12 23 16 21 6 20
7 -8 14 -44 11 -75 30 -75 45 0 8 -7 19 -15 26 -13 11 -15 -4 -17 -126 0 -77
-2 -150 -2 -164 -1 -15 -20 -44 -48 -73 -54 -55 -67 -96 -43 -133 9 -14 14
-33 12 -42 -3 -12 -5 -10 -6 6 -1 18 -7 22 -31 22 -28 0 -30 3 -30 35 0 31 -3
35 -25 35 -23 0 -25 4 -25 41 0 26 6 46 16 53 13 10 12 16 -10 49 -21 31 -26
49 -26 100 l1 62 83 69 c171 141 369 255 601 345 175 69 515 147 652 150 38 1
43 -2 49 -25z m119 -5 c10 -15 -1 -23 -20 -15 -9 3 -13 10 -10 16 8 13 22 13
30 -1z m155 1 c0 -5 -7 -10 -15 -10 -8 0 -15 5 -15 10 0 6 7 10 15 10 8 0 15
-4 15 -10z m-97 -46 c3 -3 3 -12 0 -20 -9 -25 -143 -14 -143 12 0 11 17 14 68
14 38 0 71 -3 75 -6z m166 -11 c7 -15 4 -18 -20 -20 -26 -2 -28 0 -19 17 13
25 26 25 39 3z m216 8 c3 -5 1 -12 -5 -16 -5 -3 -10 1 -10 9 0 18 6 21 15 7z
m172 3 c-3 -3 -12 -4 -19 -1 -8 3 -5 6 6 6 11 1 17 -2 13 -5z m-250 -70 c32
-9 107 -28 167 -43 62 -15 112 -33 114 -40 4 -11 -7 -12 -49 -7 -58 7 -270 -9
-332 -25 -43 -11 -64 -4 -47 16 6 7 46 15 93 19 45 4 105 10 132 13 l50 6 -50
14 c-27 8 -72 20 -99 26 -27 7 -51 18 -54 25 -5 16 5 15 75 -4z m217 0 c8 -22
8 -24 -8 -24 -18 0 -29 16 -21 30 9 15 22 12 29 -6z m-614 -4 c0 -5 -4 -10
-10 -10 -5 0 -10 5 -10 10 0 6 5 10 10 10 6 0 10 -4 10 -10z m166 -56 l37 -56
-19 -36 c-10 -20 -27 -46 -38 -60 l-19 -23 -36 34 c-47 45 -72 57 -115 57 -25
0 -36 4 -36 15 0 10 10 15 29 15 40 0 81 26 116 72 16 21 32 38 36 38 5 0 25
-25 45 -56z m694 -25 c0 -5 -11 -15 -25 -21 -20 -9 -28 -8 -43 5 -17 15 -18
15 -19 -4 -1 -10 2 -17 8 -14 5 4 9 2 9 -4 0 -11 -59 -45 -66 -38 -2 2 5 25
16 50 18 41 24 46 58 49 37 3 62 -6 62 -23z m188 -74 l-21 -25 -21 23 c-21 22
-21 22 -2 49 l19 27 23 -25 23 -24 -21 -25z m92 60 c14 -8 21 -14 15 -14 -5 0
-21 6 -35 14 -14 8 -20 14 -15 14 6 0 21 -6 35 -14z m-2999 -38 c-10 -9 -11
-8 -5 6 3 10 9 15 12 12 3 -3 0 -11 -7 -18z m189 -32 c17 -20 11 -24 -22 -18
-16 3 -28 12 -28 19 0 19 34 18 50 -1z m-205 -5 c-3 -5 -11 -10 -16 -10 -6 0
-7 5 -4 10 3 6 11 10 16 10 6 0 7 -4 4 -10z m2515 -5 c0 -8 -4 -15 -10 -15 -5
0 -10 7 -10 15 0 8 5 15 10 15 6 0 10 -7 10 -15z m-2544 -60 c-3 -9 -11 -13
-16 -10 -8 5 -7 11 1 21 14 18 24 11 15 -11z m2894 -15 c0 -5 -7 -10 -15 -10
-8 0 -15 5 -15 10 0 6 7 10 15 10 8 0 15 -4 15 -10z m-187 -7 c-7 -2 -19 -2
-25 0 -7 3 -2 5 12 5 14 0 19 -2 13 -5z m-2306 -35 c-3 -7 -5 -2 -5 12 0 14 2
19 5 13 2 -7 2 -19 0 -25z m-197 13 c0 -14 -18 -23 -31 -15 -8 4 -7 9 2 15 18
11 29 11 29 0z m2728 -3 c-5 -15 -168 -24 -168 -10 0 18 16 22 93 22 58 0 78
-3 75 -12z m-2474 -16 c-7 -4 -14 -18 -17 -32 -4 -21 -4 -20 -6 8 -1 24 3 32
17 32 11 0 13 -3 6 -8z m-21 -65 c12 -2 -21 -4 -73 -4 -73 1 -79 2 -27 4 61 4
67 6 68 26 l2 22 4 -22 c2 -13 13 -24 26 -26z m2225 5 c10 -17 24 -26 35 -24
22 5 23 -24 0 -33 -10 -3 -19 -1 -21 4 -2 6 -10 11 -17 11 -13 0 -45 42 -45
60 0 21 31 9 48 -18z m76 6 c5 -9 7 -20 4 -23 -10 -10 -48 14 -48 31 0 20 29
14 44 -8z m-2516 -192 c-4 -5 -4 -14 0 -20 4 -6 5 -36 2 -66 l-5 -55 -9 62
c-5 38 -13 64 -22 67 -19 7 -18 36 1 36 20 0 20 53 -1 85 -15 24 -15 25 7 34
24 8 24 7 30 -63 3 -39 2 -75 -3 -80z m-308 130 c0 -8 -4 -18 -10 -21 -5 -3
-10 3 -10 14 0 12 5 21 10 21 6 0 10 -6 10 -14z m337 -8 c-3 -8 -6 -5 -6 6 -1
11 2 17 5 13 3 -3 4 -12 1 -19z m153 -8 c0 -11 -7 -20 -15 -20 -13 0 -14 4 -5
20 6 11 13 20 15 20 3 0 5 -9 5 -20z m2260 -20 c0 -5 -7 -10 -16 -10 -8 0 -12
5 -9 10 3 6 10 10 16 10 5 0 9 -4 9 -10z m-2267 -37 c-7 -2 -19 -2 -25 0 -7 3
-2 5 12 5 14 0 19 -2 13 -5z m-56 -29 c-3 -3 -12 -4 -19 -1 -8 3 -5 6 6 6 11
1 17 -2 13 -5z m63 -12 c0 -4 -5 -13 -12 -20 -9 -9 -8 -12 8 -12 25 0 58 -23
53 -37 -3 -7 -24 -4 -59 8 -30 10 -49 18 -42 18 6 1 12 12 12 26 0 18 5 25 20
25 11 0 20 -4 20 -8z m2910 -16 c0 -3 -4 -8 -10 -11 -5 -3 -10 -1 -10 4 0 6 5
11 10 11 6 0 10 -2 10 -4z m-2870 -172 c0 -41 -3 -74 -7 -74 -46 1 -79 43 -42
53 15 4 19 14 19 49 0 25 3 48 6 51 16 16 24 -10 24 -79z m285 60 c9 -9 14
-18 12 -20 -7 -7 -67 18 -67 27 0 15 37 10 55 -7z m36 -56 c6 -10 8 -24 5 -31
-2 -7 -5 -4 -5 6 -1 9 -9 17 -18 17 -25 0 -47 16 -39 28 9 15 45 2 57 -20z
m-541 0 c0 -17 -3 -19 -12 -10 -7 7 -30 13 -52 13 -39 1 -40 2 -11 9 57 15 75
12 75 -12z m266 -76 c-10 -10 -29 15 -21 28 6 9 10 8 17 -4 6 -10 7 -20 4 -24z
m1120 -29 c20 -32 43 -64 52 -70 14 -12 62 -141 62 -167 0 -6 -17 16 -37 49
-32 51 -38 56 -43 38 -5 -20 -7 -18 -33 17 -15 21 -23 41 -18 44 5 4 17 -4 25
-16 24 -33 28 -16 7 26 -11 20 -24 49 -30 64 -6 15 -15 37 -21 50 -16 39 -2
24 36 -35z m-170 -18 c43 -54 164 -232 164 -242 0 -4 6 -14 13 -22 22 -26 62
-95 51 -88 -6 3 -24 25 -40 49 -16 24 -42 61 -59 84 -16 22 -55 76 -85 118
-30 43 -65 89 -77 102 -13 14 -23 35 -23 47 0 12 4 17 8 12 5 -6 26 -32 48
-60z m-694 13 c-13 -13 -26 8 -17 30 6 16 7 16 17 -1 7 -13 7 -22 0 -29z
m-742 3 c0 -29 18 -35 22 -9 3 20 9 23 43 23 l40 0 3 -53 3 -53 -33 3 c-25 2
-34 8 -36 25 -3 17 -11 22 -48 25 -25 2 -48 0 -51 -5 -9 -15 -20 3 -16 27 5
23 17 30 61 35 6 0 12 -8 12 -18z m360 -11 c0 -16 -4 -30 -10 -30 -5 0 -10 9
-10 20 0 17 -7 20 -51 20 -31 0 -48 4 -44 10 3 6 31 10 61 10 53 0 54 0 54
-30z m180 9 c0 -9 7 -20 16 -23 8 -3 12 -10 9 -16 -4 -7 -13 -7 -26 0 -11 6
-24 8 -29 5 -5 -3 -13 3 -19 12 -6 10 -11 12 -11 6 0 -18 -20 -16 -20 2 0 11
-12 15 -45 15 -25 0 -45 5 -45 10 0 7 31 10 85 8 71 -3 85 -6 85 -19z m150
-19 c0 -5 9 -10 21 -10 15 0 19 -4 15 -16 -3 -9 -6 -20 -6 -25 0 -5 -5 -9 -11
-9 -6 0 -8 8 -4 19 4 13 0 20 -15 24 -20 5 -28 27 -10 27 6 0 10 -4 10 -10z
m0 -94 c0 -8 -13 -16 -30 -18 -24 -4 -30 -1 -30 14 0 13 8 18 30 18 19 0 30
-5 30 -14z m113 -12 c-4 -10 -9 -12 -15 -6 -12 12 -1 35 12 27 5 -3 6 -13 3
-21z m-330 9 c-7 -2 -21 -2 -30 0 -10 3 -4 5 12 5 17 0 24 -2 18 -5z m70 0
c-7 -2 -19 -2 -25 0 -7 3 -2 5 12 5 14 0 19 -2 13 -5z m3200 -33 c13 -33 22
-38 31 -15 6 17 15 19 34 6 10 -6 6 -16 -17 -42 -17 -18 -31 -38 -31 -44 0 -5
-15 -25 -32 -44 l-31 -35 -36 21 c-20 11 -38 29 -41 39 -3 11 -13 31 -23 46
-10 15 -16 32 -12 38 7 11 46 4 88 -17 35 -17 35 -3 1 43 l-26 34 42 0 c37 0
43 -3 53 -30z m-3013 -17 c0 -20 -5 -23 -35 -23 -27 0 -35 4 -35 18 0 25 5 29
40 29 25 0 30 -4 30 -24z m-662 -45 c-2 -48 -7 -63 -18 -63 -8 0 -14 6 -12 14
2 8 -3 11 -11 8 -8 -3 -20 -1 -28 4 -10 6 -7 9 14 9 28 0 36 13 15 27 -7 4
-23 7 -36 6 -19 -1 -19 0 -2 4 11 2 20 10 20 16 0 7 4 6 10 -3 9 -13 10 -13
10 1 0 16 19 39 32 39 5 0 8 -28 6 -62z m492 13 c0 -23 -5 -30 -25 -33 -23 -5
-25 -2 -25 28 0 30 3 34 25 34 21 0 25 -5 25 -29z m240 -6 c0 -38 -6 -36 120
-40 29 -1 36 -5 38 -25 l4 -23 -124 8 c-67 4 -168 8 -223 8 -59 0 -76 2 -40 4
33 2 63 9 67 16 6 9 10 9 17 -2 6 -9 11 -10 15 -2 4 6 2 11 -3 11 -6 0 -11 5
-11 10 0 6 9 10 19 10 11 0 21 6 23 12 3 9 9 8 22 -5 10 -9 21 -17 26 -17 5 0
14 -2 22 -5 20 -8 20 47 0 62 -15 11 -15 12 6 13 19 0 22 -5 22 -35z m320 -7
c0 -5 7 -16 15 -25 9 -8 36 -46 60 -83 25 -38 49 -72 55 -75 5 -3 10 -15 10
-26 0 -10 4 -27 9 -37 5 -9 12 -26 16 -37 5 -18 8 -17 31 10 21 26 24 27 19 8
-6 -20 -3 -22 32 -16 21 3 46 10 55 14 27 14 43 12 29 -4 -28 -34 81 -70 125
-41 25 17 26 15 36 -50 3 -18 4 -19 20 -3 9 9 19 17 22 17 14 0 5 -59 -11 -71
-17 -15 -93 -17 -160 -4 l-38 7 29 -31 c16 -17 27 -33 24 -36 -6 -6 -64 16
-140 55 l-57 29 10 -25 c8 -22 7 -25 -7 -20 -14 5 -16 1 -10 -24 l6 -31 -29
21 -30 20 -14 -20 c-15 -22 -27 -17 -27 12 0 23 -17 24 -24 1 -3 -10 -4 -1 -1
20 3 28 0 37 -11 37 -21 0 31 67 58 76 15 4 17 9 9 17 -18 18 -12 29 9 17 18
-10 20 -8 20 25 0 19 -4 35 -10 35 -5 0 -10 6 -10 13 0 7 -21 35 -47 62 -25
28 -47 55 -48 60 -2 15 -15 46 -36 86 -23 44 -24 56 -4 39 8 -7 15 -17 15 -22z
m-500 2 c0 -11 -5 -20 -11 -20 -5 0 -7 5 -3 11 3 6 0 15 -7 20 -11 7 -10 9 4
9 10 0 17 -8 17 -20z m844 -68 c4 -9 -5 -3 -18 13 -15 18 -25 24 -26 16 0 -11
-5 -9 -19 6 -11 12 -25 23 -32 25 -7 2 -9 10 -5 16 8 14 90 -48 100 -76z
m2494 35 c9 16 11 15 17 -8 5 -21 -2 -38 -36 -83 -23 -31 -47 -55 -52 -53 -15
5 -88 128 -84 141 2 6 9 1 16 -12 16 -30 31 -28 31 5 l0 27 30 -29 c32 -31 48
-29 31 3 -17 33 -13 37 13 13 23 -21 25 -22 34 -4z m492 0 c0 -2 -17 -19 -37
-38 l-38 -34 34 38 c33 34 41 42 41 34z m-133 -57 c1 -10 -2 -22 -7 -25 -6 -4
-10 7 -10 26 0 34 12 33 17 -1z m-561 -35 c-5 -27 -13 -36 -34 -41 -15 -3 -33
-7 -39 -10 -22 -6 -14 9 29 60 44 51 54 49 44 -9z m-3686 -25 c0 -60 -2 -70
-17 -70 -15 0 -18 9 -17 58 0 32 4 63 8 70 17 28 26 8 26 -58z m4060 8 c-1
-29 -7 -69 -13 -88 -26 -70 -224 -318 -267 -332 -12 -4 -13 -9 -3 -26 12 -19
8 -22 -45 -42 -31 -12 -61 -23 -67 -24 -24 -5 -85 -31 -85 -36 0 -3 19 -6 43
-7 23 -1 57 -4 75 -8 25 -6 32 -4 32 8 0 9 4 18 9 21 4 3 7 -10 5 -29 -1 -22
3 -35 12 -39 8 -3 14 -10 14 -16 0 -6 -12 -3 -27 8 -60 41 -85 45 -143 23 -29
-11 -57 -18 -61 -15 -5 3 -6 -3 -3 -13 4 -14 1 -12 -15 6 -12 13 -21 37 -21
56 0 28 5 35 29 43 17 6 37 24 46 41 8 17 19 31 24 31 5 0 11 9 14 20 3 11 11
19 17 18 7 -2 29 29 49 67 40 79 81 139 88 131 5 -5 -3 -22 -57 -118 -17 -32
-28 -58 -23 -58 11 0 75 62 119 115 20 25 39 44 41 42 5 -6 -33 -71 -79 -134
-21 -29 -36 -53 -33 -53 13 0 51 24 93 58 45 37 101 139 123 226 11 46 23 57
32 34 3 -7 6 -2 6 12 1 28 50 130 63 130 4 0 8 -24 8 -52z m125 -4 c-12 -9
-16 -23 -13 -50 2 -23 -2 -39 -9 -41 -9 -3 -13 10 -13 48 0 41 5 56 23 73 21
20 22 20 25 2 2 -11 -4 -25 -13 -32z m-2509 6 c15 -22 25 -42 23 -45 -3 -2
-17 16 -32 40 -33 56 -27 59 9 5z m-952 12 c9 -26 77 -27 104 -1 12 10 24 19
27 19 12 0 4 -58 -9 -63 -10 -4 -16 -25 -18 -63 -2 -38 -8 -59 -17 -62 -10 -3
-13 3 -9 26 3 23 1 29 -10 24 -10 -3 -13 0 -10 9 6 19 -50 79 -92 97 -31 13
-33 16 -15 23 32 12 43 10 49 -9z m-322 -22 c-2 -16 -6 -30 -8 -30 -2 0 -4 14
-4 30 0 17 4 30 8 30 5 0 7 -13 4 -30z m75 -6 c3 -27 2 -28 -7 -6 -8 18 -15
22 -32 17 -22 -6 -23 -6 -3 10 26 21 40 14 42 -21z m66 24 c-25 -12 -32 -34
-8 -24 8 3 15 1 15 -4 0 -6 -9 -10 -20 -10 -25 0 -27 37 -2 43 31 8 38 6 15
-5z m46 -9 c-22 -13 -31 -11 -17 5 7 8 17 12 22 9 4 -3 2 -9 -5 -14z m48 5
c-3 -3 -12 -4 -19 -1 -8 3 -5 6 6 6 11 1 17 -2 13 -5z m276 -49 c-4 -12 4 -15
36 -15 39 0 41 -2 41 -29 0 -28 -2 -29 -44 -29 -34 0 -43 3 -42 16 0 10 -4 16
-10 15 -7 -1 -12 11 -12 30 0 18 -1 37 -2 42 -6 25 2 28 20 7 10 -13 16 -30
13 -37z m3340 33 c-9 -10 -19 -15 -22 -12 -3 4 0 9 7 11 6 3 10 8 8 12 -3 4 1
8 9 8 13 0 12 -4 -2 -19z m-3501 -65 c11 -12 21 -44 24 -81 6 -55 5 -62 -11
-62 -14 0 -16 6 -11 28 5 20 4 23 -4 12 -8 -12 -10 -9 -10 13 0 15 5 27 11 27
14 0 -47 71 -75 87 -40 24 -72 16 -109 -27 -36 -43 -73 -55 -62 -21 3 11 -1
26 -10 35 -9 9 -11 16 -5 16 6 0 13 -7 17 -16 5 -13 10 -12 32 8 77 70 138 64
213 -19z m-292 36 c0 -6 -4 -7 -10 -4 -5 3 -10 11 -10 16 0 6 5 7 10 4 6 -3
10 -11 10 -16z m-182 4 c-15 -2 -42 -2 -60 0 -18 2 -6 4 27 4 33 0 48 -2 33
-4z m3838 -40 c-18 -33 -21 -26 -6 13 6 15 13 24 16 21 3 -3 -1 -18 -10 -34z
m-2266 -70 c44 -66 60 -103 46 -103 -4 0 -43 61 -98 154 -43 73 -7 36 52 -51z
m-1442 9 c2 -40 0 -85 -4 -100 -7 -21 -10 -11 -14 48 l-5 75 -35 6 -35 6 40 2
c55 2 26 21 -32 21 -24 0 -43 5 -43 10 0 7 24 10 62 8 l63 -3 3 -73z m75 38
c-8 -29 -21 -25 -15 5 2 14 8 23 12 20 5 -3 6 -14 3 -25z m-46 -12 c-3 -8 -6
-5 -6 6 -1 11 2 17 5 13 3 -3 4 -12 1 -19z m-437 -3 c0 -8 -9 -15 -20 -15 -11
0 -20 5 -20 11 0 5 5 7 10 4 6 -3 10 -1 10 4 0 6 5 11 10 11 6 0 10 -7 10 -15z
m-82 -23 c23 -30 12 -33 -23 -6 -19 14 -35 28 -35 31 0 10 46 -10 58 -25z
m742 12 c0 -17 -22 -14 -28 4 -2 7 3 12 12 12 9 0 16 -7 16 -16z m-134 -18 c1
-1 -2 -21 -6 -46 -6 -39 -8 -40 -9 -12 -1 37 -17 43 -24 10 -3 -16 -5 -13 -6
11 -1 30 -4 33 -26 29 -17 -4 -25 -1 -25 8 0 10 11 12 48 7 26 -3 48 -6 48 -7z
m3584 -11 c-13 -14 -26 -22 -29 -19 -3 3 5 14 19 24 34 27 38 25 10 -5z
m-3047 0 c3 -13 -74 -19 -130 -10 -24 3 -43 11 -43 16 0 13 169 7 173 -6z
m-948 -19 c0 -18 -33 -34 -125 -60 l-25 -7 25 20 25 21 -27 0 c-21 0 -28 5
-28 19 0 26 13 29 90 28 57 -2 65 -4 65 -21z m553 6 c2 -7 -6 -12 -17 -12 -21
0 -27 11 -14 24 9 9 26 2 31 -12z m3177 -13 c-9 -17 -19 -29 -21 -26 -8 7 15
57 26 57 6 0 4 -13 -5 -31z m-3265 11 c0 -5 -4 -10 -10 -10 -5 0 -10 5 -10 10
0 6 5 10 10 10 6 0 10 -4 10 -10z m3070 -7 c-1 -18 -18 -35 -24 -24 -4 6 -4
16 -1 21 7 12 25 13 25 3z m-2629 -20 c0 -10 2 -37 5 -60 2 -27 0 -43 -7 -43
-5 0 -9 8 -8 18 2 9 -1 32 -5 50 -8 33 -16 37 -81 45 -16 2 -2 5 33 6 53 1 62
-2 63 -16z m-1076 -43 c8 0 17 -5 21 -11 5 -9 -1 -10 -22 -5 -35 9 -64 34 -64
55 0 11 7 8 25 -12 14 -15 32 -27 40 -27z m1799 -7 c47 -60 65 -101 20 -48
-66 79 -85 105 -76 105 6 0 31 -26 56 -57z m-1503 8 c40 -40 49 -60 27 -62 -7
0 -24 -2 -37 -3 -29 -3 -52 8 -103 48 -33 27 -35 31 -20 43 9 7 34 13 56 13
31 0 45 -7 77 -39z m-567 -80 c-1 -2 -15 6 -30 18 -31 24 -41 22 -24 -6 16
-24 84 -65 135 -80 l40 -11 -40 -1 c-22 0 -51 6 -65 14 -14 8 -37 20 -53 28
-15 7 -24 16 -20 20 3 4 -1 7 -10 7 -13 0 -16 10 -16 43 1 23 0 47 -1 52 -6
28 4 22 44 -27 24 -29 42 -55 40 -57z m936 79 c0 -5 -5 -10 -11 -10 -5 0 -7 5
-4 10 3 6 8 10 11 10 2 0 4 -4 4 -10z m59 -31 c-16 -10 -23 -4 -14 10 3 6 11
8 17 5 6 -4 5 -9 -3 -15z m3395 -18 c-17 -16 -46 -36 -65 -45 l-34 -17 30 23
c16 13 41 33 55 45 37 33 50 28 14 -6z m-454 1 c0 -10 -7 -19 -14 -19 -11 0
-13 5 -5 19 5 10 12 18 14 18 3 0 5 -8 5 -18z m-3487 -18 c-7 -19 -10 -18 -16
5 -3 13 -1 18 9 14 7 -2 10 -11 7 -19z m1462 -3 c3 -6 -4 -15 -15 -21 -20 -11
-21 -10 -10 9 12 23 16 25 25 12z m-106 -20 c6 -10 13 -37 17 -60 6 -37 5 -41
-15 -41 -24 0 -24 -1 -12 -52 7 -32 6 -38 -9 -43 -11 -3 -20 -16 -22 -27 -2
-12 -8 -23 -14 -25 -16 -5 -85 69 -79 85 2 6 -2 12 -11 12 -8 0 -19 12 -24 26
-12 32 -13 57 -1 50 5 -4 7 3 4 13 -3 13 2 23 15 30 30 16 52 -10 53 -62 0
-23 3 -35 6 -27 3 8 17 28 31 43 20 21 26 36 23 62 -2 26 1 35 13 35 8 0 20
-8 25 -19z m1881 15 c0 -2 -3 -12 -6 -20 -5 -13 -9 -14 -20 -5 -20 16 -17 29
6 29 11 0 20 -2 20 -4z m-3203 -23 c-9 -9 -20 -13 -24 -9 -4 4 -1 11 7 16 25
16 35 11 17 -7z m200 11 c-3 -3 -12 -4 -19 -1 -8 3 -5 6 6 6 11 1 17 -2 13 -5z
m-263 -27 c15 -24 -3 -35 -20 -13 -8 11 -14 24 -14 29 0 13 22 3 34 -16z m182
-19 c1 -24 5 -62 9 -85 9 -52 -1 -113 -19 -113 -8 0 -17 -8 -20 -17 -6 -15 -8
-15 -17 -3 -8 13 -10 13 -18 0 -6 -8 -11 -12 -13 -10 -2 3 -18 24 -36 47 -17
23 -32 49 -32 57 0 9 -6 15 -12 14 -12 -3 -13 6 -6 69 4 27 23 36 48 23 13 -7
21 -7 26 1 4 7 20 9 40 6 38 -6 43 -1 17 19 -17 13 -17 13 0 14 9 0 17 5 17
10 0 6 3 10 8 10 4 0 8 -19 8 -42z m1527 -29 c21 -15 53 -31 70 -34 18 -4 37
-11 42 -16 6 -4 28 -9 49 -11 43 -3 42 11 13 -143 -12 -64 -12 -73 4 -106 18
-36 18 -37 0 -42 -28 -7 -48 8 -33 26 10 11 5 27 -23 78 -20 35 -41 76 -48 92
-6 15 -14 27 -17 27 -3 0 -12 -19 -20 -42 -21 -61 -50 -59 -70 4 -18 55 -40
84 -40 52 0 -20 -36 -62 -45 -53 -2 3 -7 32 -10 64 -2 33 -8 75 -11 93 -5 25
-3 32 10 32 9 0 21 9 28 20 14 22 15 21 101 -41z m1453 5 c-14 -30 -17 -25 -9
21 5 29 8 34 13 20 4 -10 2 -29 -4 -41z m357 48 c3 7 6 8 6 2 1 -6 -8 -19 -19
-29 -20 -18 -20 -17 -20 10 0 22 3 25 14 16 11 -9 15 -9 19 1z m-3423 -17
c-12 -15 -30 -12 -30 6 0 5 10 9 21 9 18 0 19 -2 9 -15z m353 -20 c17 -35 17
-35 -3 -25 -11 6 -17 16 -14 25 5 13 -8 15 -79 15 -47 0 -89 5 -92 10 -4 6 26
10 83 10 l88 0 17 -35z m57 25 c0 -5 -9 -10 -19 -10 -11 0 -23 5 -26 10 -4 6
5 10 19 10 14 0 26 -4 26 -10z m75 0 c-3 -5 -15 -10 -25 -10 -10 0 -22 5 -25
10 -4 6 7 10 25 10 18 0 29 -4 25 -10z m75 -5 c0 -19 -11 -19 -36 0 -18 14
-18 14 9 15 17 0 27 -5 27 -15z m-1084 -27 c28 -30 17 -30 -18 0 -16 13 -24
32 -15 32 2 0 16 -14 33 -32z m359 22 c3 -5 1 -10 -4 -10 -6 0 -11 5 -11 10 0
6 2 10 4 10 3 0 8 -4 11 -10z m-11 -47 c19 -33 21 -42 9 -31 -10 9 -30 20 -45
23 -23 6 -28 4 -28 -10 0 -14 -3 -15 -15 -5 -21 18 -19 29 9 40 13 5 27 14 31
19 9 16 11 15 39 -36z m3986 -3 c-34 -11 -60 -11 -35 0 11 5 29 8 40 8 16 0
15 -2 -5 -8z m-4464 -28 c-6 -11 -66 -34 -66 -26 0 7 64 44 68 39 2 -2 1 -8
-2 -13z m784 -19 c0 -7 -4 -13 -10 -13 -5 0 -10 12 -10 28 0 21 2 24 10 12 5
-8 10 -21 10 -27z m255 28 c3 -5 1 -12 -5 -16 -5 -3 -10 1 -10 9 0 18 6 21 15
7z m142 3 c-3 -3 -12 -4 -19 -1 -8 3 -5 6 6 6 11 1 17 -2 13 -5z m-796 -21
c29 -17 38 -33 20 -33 -6 0 -13 5 -16 10 -3 6 -13 10 -21 10 -8 0 -12 -4 -9
-10 3 -6 -4 -10 -17 -10 -14 0 -33 -7 -44 -15 -28 -21 -40 -18 -19 5 10 11 24
20 31 20 7 0 18 9 24 20 13 24 15 24 51 3z m3619 -20 c0 -7 -4 -13 -10 -13 -5
0 -10 12 -10 28 0 21 2 24 10 12 5 -8 10 -21 10 -27z m-3830 -53 c11 0 11 -3
2 -12 -16 -16 -53 5 -75 42 -25 42 -21 43 21 5 20 -19 44 -35 52 -35z m650 24
c0 -8 7 -14 15 -14 8 0 15 -7 15 -16 0 -8 -4 -12 -10 -9 -5 3 -10 0 -11 -7 0
-10 -2 -10 -6 0 -6 14 -33 16 -33 2 0 -5 -5 -10 -10 -10 -7 0 -7 7 0 20 6 11
10 26 9 33 -4 32 1 40 16 27 8 -7 15 -19 15 -26z m261 9 c13 -16 12 -17 -3 -5
-9 8 -23 10 -29 6 -8 -4 -9 -3 -5 4 10 17 21 15 37 -5z m986 -5 c-3 -8 -6 -5
-6 6 -1 11 2 17 5 13 3 -3 4 -12 1 -19z m2701 -26 c40 -17 41 -19 27 -37 -14
-19 -15 -19 -29 -2 -21 27 -132 30 -130 5 2 -20 -38 -37 -44 -20 -2 8 -11 7
-26 -3 -13 -9 -30 -13 -38 -10 -12 5 -14 1 -11 -17 5 -27 -21 -62 -54 -72 -26
-8 -31 -26 -8 -26 8 0 15 -4 15 -9 0 -5 16 -12 35 -15 l34 -7 -20 -39 c-28
-54 -59 -63 -59 -17 0 11 7 29 17 39 9 10 12 18 7 18 -18 0 -34 -24 -34 -52 0
-25 -4 -28 -31 -28 l-32 0 6 50 c12 103 79 202 162 241 52 24 154 24 213 1z
m-4235 -7 c4 -8 2 -17 -3 -20 -6 -4 -10 -1 -10 5 0 6 -4 8 -10 5 -11 -7 -14 8
-3 18 10 11 20 8 26 -8z m2997 -13 c0 -4 -5 -13 -12 -20 -10 -10 -7 -16 12
-30 14 -9 28 -16 33 -14 12 4 8 -9 -15 -47 -30 -49 -60 -81 -78 -81 -23 0 -85
57 -69 62 11 4 11 9 -2 24 -24 29 -34 48 -20 40 11 -7 115 46 126 65 7 11 25
12 25 1z m710 4 c0 -3 -4 -8 -10 -11 -5 -3 -10 -1 -10 4 0 6 5 11 10 11 6 0
10 -2 10 -4z m-3352 -39 c12 -13 19 -27 15 -30 -3 -4 -1 -7 5 -7 6 0 19 -14
28 -31 l16 -32 -29 21 c-39 28 -56 49 -49 61 3 5 -1 11 -9 15 -16 6 -21 26 -7
26 5 0 18 -10 30 -23z m-649 -21 c-7 -14 -16 -26 -21 -26 -12 0 -10 8 8 36 21
31 29 25 13 -10z m3592 23 c11 -5 17 -14 14 -20 -4 -5 -2 -9 3 -9 5 0 14 -12
21 -26 10 -24 10 -25 -11 -18 -25 8 -78 44 -78 54 0 6 22 30 28 30 2 0 12 -5
23 -11z m-3017 -15 c4 -11 2 -15 -8 -11 -8 3 -17 1 -19 -6 -2 -7 -8 -9 -12 -5
-8 8 12 38 25 38 4 0 11 -7 14 -16z m2892 -21 c-11 -11 -17 4 -9 23 7 18 8 18
11 1 2 -10 1 -21 -2 -24z m-3176 12 c0 -9 -6 -12 -15 -9 -8 4 -15 10 -15 15 0
5 7 9 15 9 8 0 15 -7 15 -15z m3829 -12 c2 -2 -5 -3 -17 -3 -14 0 -22 6 -22
16 0 14 3 15 18 3 9 -7 19 -15 21 -16z m-2421 -13 c25 -23 26 -26 13 -35 -5
-3 -19 8 -31 25 -24 34 -14 40 18 10z m1817 -57 c-19 -29 -32 -24 -15 6 7 14
7 21 0 21 -5 0 -10 -7 -10 -15 0 -17 -16 -20 -25 -5 -3 6 -1 10 5 10 6 0 8 5
5 10 -3 6 -4 19 0 29 5 18 7 18 31 -6 24 -24 24 -26 9 -50z m253 17 c7 0 15 7
18 15 6 14 24 12 24 -4 0 -4 -20 -20 -44 -35 -25 -16 -53 -37 -63 -48 -16 -18
-18 -18 -24 -1 -6 13 -8 14 -8 3 -1 -30 15 -43 38 -31 18 10 21 9 21 -7 0 -24
-67 -72 -100 -72 -22 0 -22 1 -6 19 11 12 15 27 12 39 -7 22 16 83 39 102 13
11 19 10 35 -5 21 -19 24 -15 14 23 -5 17 -10 20 -19 12 -20 -17 -26 4 -8 29
l15 23 22 -31 c11 -17 27 -31 34 -31z m92 35 c-7 -9 -15 -13 -19 -10 -3 3 1
10 9 15 21 14 24 12 10 -5z m-1175 -5 c-3 -5 -13 -7 -23 -4 -14 5 -15 4 -2 -5
12 -8 11 -14 -9 -35 -12 -13 -35 -27 -49 -31 -14 -3 -37 -14 -51 -24 -56 -39
-641 -361 -656 -361 -32 0 62 67 190 135 73 39 96 55 79 55 -5 0 -25 -10 -44
-21 -51 -32 -268 -139 -280 -139 -5 0 -10 4 -10 9 0 10 8 15 106 67 33 17 145
77 249 134 176 95 234 127 355 191 56 30 158 51 145 29z m356 -21 c7 -13 7
-19 1 -15 -6 3 -13 2 -17 -4 -3 -5 3 -10 14 -10 12 0 21 -4 21 -9 0 -5 -8 -7
-18 -4 -27 7 -45 -22 -44 -68 2 -43 -21 -92 -31 -66 -3 7 -3 25 0 40 6 30 1
32 -28 17 -33 -18 -43 1 -10 21 17 10 45 41 63 68 18 28 34 51 35 51 1 0 7
-10 14 -21z m409 11 c0 -5 -4 -10 -10 -10 -5 0 -10 5 -10 10 0 6 5 10 10 10 6
0 10 -4 10 -10z m1260 -45 c0 -3 -20 -2 -44 1 -41 6 -47 4 -90 -36 -32 -29
-50 -40 -57 -33 -7 7 -2 15 16 27 14 9 36 34 49 55 l25 39 50 -25 c28 -13 51
-26 51 -28z m-5162 16 c20 -11 55 -36 77 -56 28 -26 32 -32 13 -21 -36 21 -45
20 -25 -1 8 -10 17 -25 19 -33 2 -8 10 -18 18 -22 8 -4 -5 -4 -30 -1 -25 3
-48 9 -52 12 -10 9 -68 122 -68 133 0 12 7 10 48 -11z m4392 3 c0 -8 -5 -25
-11 -37 -10 -21 -9 -21 5 -3 15 19 16 19 23 0 9 -23 30 -29 48 -14 9 8 14 6
18 -5 4 -10 -6 -23 -31 -40 -44 -30 -55 -31 -47 -5 7 24 -7 26 -25 5 -19 -23
-43 -19 -37 5 3 11 1 20 -3 20 -16 0 -20 -18 -11 -43 8 -20 15 -24 32 -20 19
5 20 3 14 -18 -7 -24 -34 -53 -58 -62 -9 -3 -9 -8 -1 -17 9 -9 17 -9 33 -1 18
10 21 9 21 -8 0 -11 -12 -34 -26 -51 -29 -34 -44 -28 -44 19 l0 24 -25 -23
c-14 -13 -27 -21 -30 -18 -10 9 40 103 53 101 7 -2 12 4 12 13 0 13 -3 14 -14
5 -24 -20 -30 8 -7 33 23 24 27 42 11 48 -11 3 76 108 91 108 5 0 9 -7 9 -16z
m-3588 -20 c71 -30 109 -59 62 -48 -16 4 -36 11 -45 15 -13 6 -18 3 -23 -13
-5 -22 -6 -21 -34 10 -35 38 -48 40 -96 7 -37 -25 -49 -20 -18 8 19 17 72 47
85 47 4 0 35 -12 69 -26z m323 6 c46 -17 26 -27 -37 -18 -35 6 -70 17 -78 25
-13 14 -10 15 38 9 29 -4 64 -11 77 -16z m854 -16 c49 -23 81 -63 81 -99 0
-10 -14 -2 -38 25 -39 40 -39 40 -108 38 -38 -1 -80 -8 -94 -15 -14 -7 -30
-13 -36 -13 -11 0 -81 -50 -134 -95 -114 -99 -259 -276 -301 -368 -7 -15 -16
-27 -20 -27 -4 0 -10 -13 -14 -30 -4 -16 -13 -30 -21 -30 -14 0 -30 -44 -26
-67 2 -7 -3 -13 -10 -13 -7 0 -28 -33 -46 -73 -19 -40 -40 -81 -48 -91 -23
-32 -27 -11 -5 30 12 21 21 42 21 47 0 5 11 32 25 61 29 61 36 96 23 113 -24
30 215 315 377 448 61 51 106 97 100 103 -2 2 -57 -31 -122 -74 -122 -81 -244
-177 -348 -273 -33 -31 -77 -70 -98 -86 -22 -17 -54 -43 -73 -59 -19 -15 -34
-24 -34 -20 0 10 47 62 168 187 93 94 98 114 11 41 -80 -68 -89 -75 -149 -120
-30 -22 -86 -58 -125 -78 l-70 -38 78 75 c175 171 350 295 595 421 51 27 221
97 257 107 46 12 128 0 184 -27z m436 14 c33 -17 55 -40 55 -57 0 -12 -7 -9
-24 10 -14 15 -50 35 -80 44 -31 10 -56 20 -56 22 0 7 83 -8 105 -19z m2027 7
c0 -5 -5 -11 -11 -13 -6 -2 -11 4 -11 13 0 9 5 15 11 13 6 -2 11 -8 11 -13z
m98 6 c0 -5 -7 -14 -15 -21 -13 -10 -15 -9 -15 9 0 12 6 21 15 21 8 0 15 -4
15 -9z m-3556 -9 c6 -10 -82 -37 -91 -28 -6 6 53 35 74 36 6 0 14 -4 17 -8z
m3761 -12 c-3 -5 -13 -6 -21 -3 -12 4 -13 8 -3 14 15 9 32 2 24 -11z m-4125
-5 c-7 -9 -15 -13 -19 -10 -3 3 1 10 9 15 21 14 24 12 10 -5z m4343 8 c-7 -2
-21 -2 -30 0 -10 3 -4 5 12 5 17 0 24 -2 18 -5z m-4625 -79 c-4 -3 -12 5 -18
18 -12 22 -12 22 6 6 10 -10 15 -20 12 -24z m3552 -28 c0 -36 -4 -45 -21 -49
-17 -5 -21 -11 -16 -34 7 -38 -33 -104 -83 -137 -64 -42 -81 -34 -34 17 21 23
53 57 69 76 l30 34 -27 -7 c-35 -8 -35 -2 1 36 17 18 35 43 42 57 15 30 30 51
35 51 2 0 4 -20 4 -44z m-3690 -15 c5 -27 4 -38 -4 -35 -6 2 -11 22 -11 44 -1
48 5 44 15 -9z m2107 33 c-3 -3 -12 -4 -19 -1 -8 3 -5 6 6 6 11 1 17 -2 13 -5z
m103 -9 c18 -22 4 -31 -16 -10 -9 9 -25 14 -36 12 -10 -3 -16 -1 -12 4 9 14
50 10 64 -6z m-2025 -15 c-4 -11 -2 -20 4 -20 6 0 11 -4 11 -10 0 -21 -19 -8
-29 20 -8 25 -7 30 5 30 11 0 13 -6 9 -20z m-125 -33 c0 -10 -4 -15 -10 -12
-5 3 -10 18 -10 33 0 21 2 24 10 12 5 -8 10 -23 10 -33z m1870 3 c21 -41 25
-60 12 -60 -8 0 -42 73 -42 90 0 19 10 10 30 -30z m-135 16 c31 -13 63 -51 52
-63 -3 -2 -25 -6 -49 -9 -24 -2 -35 -1 -25 2 9 3 17 9 17 12 -1 14 -39 52 -52
52 -10 0 -9 3 2 10 19 12 15 12 55 -4z m2465 -6 c-8 -5 -12 -10 -7 -10 8 0
-30 -80 -38 -80 -3 0 -10 12 -16 26 -10 29 -4 64 12 64 6 0 7 -4 4 -10 -3 -5
0 -10 8 -10 8 0 17 7 21 15 3 8 11 15 18 15 9 0 8 -3 -2 -10z m-1130 -20 c57
0 65 -3 91 -32 17 -17 35 -40 40 -50 9 -17 8 -18 -10 -9 -11 6 -22 15 -25 20
-3 4 -18 8 -33 9 -68 2 -104 13 -133 38 -34 31 -40 50 -11 34 11 -5 47 -10 81
-10z m180 5 c7 -9 8 -15 2 -15 -5 0 -12 7 -16 15 -3 8 -4 15 -2 15 2 0 9 -7
16 -15z m1440 11 c0 -2 -24 -19 -52 -37 -138 -85 -161 -100 -210 -136 -17 -12
-35 -20 -40 -17 -5 3 -7 1 -6 -4 2 -5 -15 -25 -36 -45 -37 -35 -39 -39 -40
-101 -1 -61 -2 -63 -15 -39 -19 36 -9 138 17 172 18 24 35 31 102 45 14 3 34
12 45 21 21 17 226 145 232 145 2 0 3 -2 3 -4z m-4804 -58 c6 -10 -12 -6 -63
13 -43 16 -32 28 12 13 25 -9 48 -20 51 -26z m231 8 c27 -18 63 -41 81 -51 44
-21 34 -31 -15 -14 -55 18 -122 67 -123 92 0 12 8 8 57 -27z m2552 12 c11 -10
14 -10 18 0 6 17 23 15 23 -3 0 -8 -4 -15 -10 -15 -5 0 -7 -8 -4 -17 5 -15 2
-14 -13 3 -10 11 -27 26 -38 32 -15 8 -16 11 -4 12 8 0 21 -6 28 -12z m1211 2
c22 14 38 11 20 -3 -9 -7 -22 -27 -29 -44 -7 -18 -17 -33 -21 -33 -17 0 -28
69 -13 83 3 4 11 3 17 -3 7 -5 17 -5 26 0z m-2070 -82 c0 -14 -18 -9 -24 8
-11 28 -6 39 9 20 8 -11 15 -23 15 -28z m1210 -6 c0 -14 -23 -32 -42 -32 -25
0 -23 15 5 28 27 13 37 14 37 4z m1154 -14 c-7 -12 16 -39 27 -32 5 3 9 -6 9
-21 0 -22 -2 -24 -19 -15 -45 23 -70 93 -31 83 11 -3 17 -9 14 -15z m-4040 1
c4 6 12 11 17 11 6 0 4 -7 -5 -15 -20 -20 -36 -19 -36 3 0 13 2 14 9 3 6 -9
11 -10 15 -2z m3897 -26 c12 -21 24 -40 25 -42 2 -2 12 7 23 20 l20 24 1 -26
c0 -23 -17 -87 -26 -98 -8 -9 -44 33 -44 51 0 11 -4 16 -10 13 -5 -3 -10 -17
-10 -31 0 -33 -17 -22 -25 15 -5 24 11 111 21 111 1 0 13 -17 25 -37z m-2471
23 c0 -3 -4 -8 -10 -11 -5 -3 -10 -1 -10 4 0 6 5 11 10 11 6 0 10 -2 10 -4z
m236 -52 c-11 -8 -31 -13 -45 -13 -17 1 -20 3 -8 6 20 5 22 19 5 29 -7 5 -5
11 8 21 16 11 21 11 39 -7 20 -21 20 -21 1 -36z m2544 47 c0 -5 -13 -14 -30
-21 -18 -7 -30 -20 -30 -31 0 -10 -4 -20 -9 -24 -12 -7 -26 59 -16 74 7 13 85
15 85 2z m-2371 -58 c42 -59 100 -146 116 -173 6 -11 3 -10 -12 3 -11 9 -22
14 -26 11 -3 -4 -12 5 -18 20 -7 14 -16 26 -22 26 -5 0 -6 8 -3 17 4 10 4 14
0 11 -7 -8 -69 70 -79 101 -8 25 -25 28 -25 4 0 -13 -3 -14 -12 -5 -8 8 -8 15
2 27 21 26 37 17 79 -42z m-1807 22 c20 5 21 4 5 -5 -19 -12 -57 -5 -57 12 0
7 5 6 15 -2 8 -6 24 -9 37 -5z m1308 1 c0 -2 -7 -7 -16 -10 -8 -3 -12 -2 -9 4
6 10 25 14 25 6z m1421 -27 c383 -47 438 -56 412 -64 -13 -4 -23 -11 -23 -16
0 -5 -5 -9 -12 -9 -6 0 -8 3 -4 8 9 8 -77 22 -314 51 -91 11 -188 24 -217 27
-28 4 -67 4 -86 0 -33 -6 -35 -9 -56 -84 -12 -42 -31 -104 -42 -138 -10 -33
-19 -68 -19 -77 0 -9 -4 -17 -10 -17 -15 0 -13 9 21 133 60 222 58 217 78 217
10 0 133 -14 272 -31z m1018 -14 c0 -5 -4 -3 -9 5 -5 8 -9 22 -9 30 0 16 17
-16 18 -35z m-2075 -70 c14 -36 26 -70 26 -77 0 -15 -31 -37 -52 -38 -21 0
-24 15 -5 27 6 4 13 16 13 26 2 14 -1 15 -12 6 -8 -7 -17 -9 -21 -5 -3 3 -2 6
4 6 6 0 13 9 16 20 3 11 0 20 -6 20 -6 0 -7 3 -4 7 4 3 0 14 -8 23 -17 19 -10
50 10 50 7 0 25 -29 39 -65z m84 43 c16 -16 15 -28 -3 -28 -8 0 -15 -6 -15
-14 0 -16 -19 -25 -37 -18 -19 6 -16 23 9 49 25 26 29 28 46 11z m902 -13 c58
-8 159 -22 225 -30 160 -19 195 -26 195 -33 -1 -11 -34 -145 -68 -272 -17 -63
-36 -135 -43 -160 -7 -25 -13 -46 -15 -48 -3 -5 -429 90 -533 118 -49 13 -49
1 -6 150 24 85 56 205 72 268 7 27 25 28 173 7z m900 -8 c-25 -6 -47 -13 -50
-16 -3 -3 -21 -6 -40 -6 -33 0 -36 -3 -57 -55 -22 -56 -22 -56 -103 -79 -38
-10 -30 -34 15 -49 35 -12 60 -11 195 8 85 12 158 24 163 27 4 2 7 -1 7 -7 0
-15 -10 -18 -162 -39 -76 -11 -142 -22 -148 -26 -5 -3 -10 -20 -10 -36 0 -37
-23 -35 -28 2 -5 33 -18 45 -36 30 -11 -9 -15 -9 -19 1 -4 9 -6 8 -6 -2 -1 -9
4 -21 11 -28 9 -9 8 -12 -5 -12 -14 0 -17 -10 -18 -52 -1 -85 -14 -156 -24
-135 -13 30 4 300 19 315 7 8 32 16 56 19 36 5 44 11 56 39 8 18 14 41 14 51
0 36 18 48 82 54 35 3 79 6 98 6 33 1 33 0 -10 -10z m499 -52 c-8 -7 -49 33
-49 48 0 6 12 -1 27 -15 15 -15 25 -30 22 -33z m-2257 -30 c-2 -14 -6 -25 -8
-25 -2 0 -4 11 -4 25 0 14 4 25 9 25 4 0 6 -11 3 -25z m2577 -21 c13 -11 9
-12 -25 -3 -21 6 -43 15 -49 21 -16 16 57 -2 74 -18z m-2133 -19 c35 -23 23
-30 -16 -10 -18 9 -34 14 -38 11 -7 -7 -7 -7 56 -36 28 -13 52 -30 52 -37 0
-15 -36 -10 -54 8 -23 21 -25 6 -6 -32 24 -46 21 -59 -6 -32 -9 10 -20 18 -23
18 -3 0 -19 13 -35 28 -33 30 -46 34 -46 12 0 -8 3 -15 8 -15 4 0 13 -10 21
-21 14 -23 16 -23 -38 -2 -10 5 -12 -1 -6 -28 l7 -34 -23 30 c-13 17 -34 38
-47 48 l-22 19 37 28 c21 16 47 37 58 49 24 24 81 22 121 -4z m-1452 3 c-3 -4
-9 -8 -15 -8 -5 0 -9 4 -9 8 0 5 7 9 15 9 8 0 12 -4 9 -9z m3164 -24 c46 -39
52 -54 23 -54 -10 0 -24 -6 -30 -14 -22 -26 -63 -26 -95 0 -16 14 -38 24 -49
22 -31 -5 -62 -53 -61 -98 1 -27 -2 -37 -12 -33 -7 2 -15 11 -18 20 -5 13 -9
13 -23 2 -15 -13 -16 -10 -10 35 8 58 12 63 31 47 11 -9 18 -6 35 15 23 30 18
52 -7 32 -10 -7 -20 -17 -24 -23 -5 -6 -8 -3 -8 6 0 21 41 58 76 69 16 4 52 9
80 9 44 1 56 -4 92 -35z m-871 -6 c-3 -8 -6 -5 -6 6 -1 11 2 17 5 13 3 -3 4
-12 1 -19z m-1335 -34 c16 -22 31 -58 34 -79 l5 -40 -21 38 c-12 21 -27 40
-35 43 -7 3 -16 17 -20 31 -4 16 -11 23 -20 19 -18 -7 -19 6 -3 22 17 17 27
12 60 -34z m1322 -18 c-3 -15 -8 -25 -11 -23 -2 3 -1 17 3 31 3 15 8 25 11 23
2 -3 1 -17 -3 -31z m-1056 -5 c43 -22 91 -91 63 -91 -5 0 -12 9 -16 20 -3 10
-28 34 -56 51 -27 18 -49 34 -49 36 0 8 24 1 58 -16z m-38 -19 c31 -20 59 -53
60 -71 0 -11 -3 -11 -17 2 -10 8 -31 18 -48 22 l-30 7 30 -21 c33 -23 25 -27
-23 -10 -28 10 -112 80 -112 94 0 12 115 -7 140 -23z m-1180 12 c0 -3 -9 -17
-20 -31 -22 -28 -28 -15 -8 17 12 19 28 27 28 14z m1067 -48 l16 -31 -33 26
c-41 31 -50 50 -20 42 11 -3 28 -20 37 -37z m1463 4 c0 -5 -2 -10 -4 -10 -3 0
-8 5 -11 10 -3 6 -1 10 4 10 6 0 11 -4 11 -10z m-2588 -32 c-7 -7 -12 -8 -12
-2 0 14 12 26 19 19 2 -3 -1 -11 -7 -17z m2305 -10 c-3 -8 -6 -5 -6 6 -1 11 2
17 5 13 3 -3 4 -12 1 -19z m283 12 c0 -5 -2 -10 -4 -10 -3 0 -8 5 -11 10 -3 6
-1 10 4 10 6 0 11 -4 11 -10z m735 0 c14 -5 56 -14 93 -20 37 -6 92 -16 122
-22 l55 -12 -40 -7 c-52 -10 -90 -11 -81 -2 4 4 -37 17 -90 28 -54 11 -99 26
-102 33 -5 15 8 15 43 2z m-1719 -18 c-3 -10 -12 -42 -20 -72 -8 -30 -17 -62
-21 -71 -6 -17 22 -33 75 -43 41 -8 281 -66 335 -80 28 -7 95 -24 150 -36 55
-13 104 -26 108 -30 4 -4 -16 -17 -45 -30 -58 -24 -277 -120 -347 -152 -43
-19 -47 -19 -100 -3 -31 9 -98 28 -150 43 -84 24 -90 28 -60 33 19 3 50 14 69
24 l35 18 -104 34 -104 34 -46 -22 c-25 -12 -48 -25 -51 -29 -3 -5 -60 8 -127
27 -67 20 -120 39 -118 43 2 4 57 24 122 44 65 21 129 42 143 48 14 6 52 18
86 28 106 31 116 41 143 158 7 28 17 52 23 52 5 0 7 -8 4 -18z m1219 -6 c38
-13 71 -28 72 -33 5 -14 -29 -26 -36 -14 -4 5 -36 17 -71 27 -76 21 -79 22
-60 34 19 12 13 13 95 -14z m-534 -42 c-5 -16 -10 -21 -10 -12 -1 18 10 51 15
45 2 -1 -1 -16 -5 -33z m307 -3 c2 -12 -2 -28 -8 -36 -6 -8 -9 -19 -5 -25 3
-5 2 -10 -4 -10 -6 0 -8 -7 -5 -15 4 -10 0 -15 -11 -15 -15 0 -16 7 -10 58 4
31 9 61 12 65 9 14 28 1 31 -22z m404 -2 c29 -6 58 -16 65 -21 6 -5 47 -9 90
-9 97 0 127 -14 48 -22 -33 -3 -65 -13 -76 -23 -11 -10 -19 -12 -19 -6 0 22
-29 12 -33 -10 -2 -13 -5 -4 -6 19 l-1 41 -39 -5 c-23 -3 -41 -1 -45 6 -11 18
-46 13 -47 -6 -1 -13 -4 -10 -10 7 -7 22 -8 20 -6 -12 2 -20 -1 -34 -5 -32 -4
3 -8 23 -8 45 0 45 5 46 92 28z m-1456 -25 c-3 -9 -9 -27 -12 -40 -3 -13 -12
-24 -19 -24 -6 0 -27 -8 -46 -17 -37 -19 -149 -31 -149 -16 0 14 61 32 108 31
24 0 46 2 49 6 4 3 -1 6 -10 6 -8 0 -28 5 -44 11 -27 11 -27 12 42 35 85 28
89 28 81 8z m1857 9 c-7 -2 -21 -2 -30 0 -10 3 -4 5 12 5 17 0 24 -2 18 -5z
m-536 -25 c-3 -8 -6 -5 -6 6 -1 11 2 17 5 13 3 -3 4 -12 1 -19z m-61 -9 c3 -6
1 -15 -6 -19 -6 -4 -11 -11 -10 -16 1 -5 -4 -10 -10 -12 -6 -2 -10 4 -8 14 2
14 -3 19 -19 18 -13 0 -23 5 -23 13 0 16 66 18 76 2z m152 -49 c62 -20 72 -27
72 -47 0 -16 -4 -21 -15 -16 -9 3 -13 8 -10 11 5 6 -40 24 -105 44 -19 5 -39
14 -44 18 -12 12 3 33 17 22 7 -5 45 -19 85 -32z m-2285 2 c19 -17 23 -57 6
-67 -5 -4 -22 -4 -36 0 -23 5 -25 10 -20 40 5 33 -5 47 -18 25 -3 -5 -12 -10
-18 -10 -7 1 -2 9 11 20 24 20 44 18 75 -8z m1817 -2 c0 -5 -9 -10 -21 -10
-30 0 -15 -15 28 -28 80 -25 252 -75 353 -103 58 -16 139 -39 180 -50 41 -12
88 -24 103 -26 27 -5 27 -6 9 -19 -22 -15 -61 -7 -111 22 -43 25 -60 9 -51
-51 8 -50 3 -54 -31 -27 -16 14 -20 24 -14 38 7 17 8 18 12 2 6 -24 23 -23 23
2 0 11 -4 20 -10 20 -5 0 -10 9 -10 20 0 15 -7 20 -29 20 -16 0 -66 14 -111
30 -91 34 -118 37 -126 15 -4 -8 -14 -15 -23 -14 -10 0 -11 2 -3 6 23 9 12 31
-18 38 -17 4 -44 14 -61 22 -23 11 -34 12 -42 4 -16 -16 -28 -13 -25 7 4 24
-42 30 -58 7 -21 -29 -49 -15 -49 25 0 27 6 37 25 47 30 15 60 17 60 3z m217
-32 c-3 -7 -5 -2 -5 12 0 14 2 19 5 13 2 -7 2 -19 0 -25z m53 8 c0 -8 -4 -18
-10 -21 -5 -3 -10 3 -10 14 0 12 5 21 10 21 6 0 10 -6 10 -14z m-2302 -66 c2
-39 0 -51 -8 -40 -5 8 -10 24 -10 35 0 18 -7 20 -83 22 -45 1 -84 3 -87 4 -3
1 -8 1 -12 0 -5 0 -8 5 -8 12 0 8 -3 7 -10 -3 -11 -18 -25 -6 -16 15 5 13 23
15 118 13 l113 -3 3 -55z m2675 41 c19 -19 2 -29 -32 -17 -48 15 -56 41 -10
32 18 -3 37 -10 42 -15z m-1813 0 c0 -5 -51 -25 -113 -45 -63 -20 -124 -44
-135 -52 -21 -14 -21 -17 -6 -46 11 -21 13 -33 5 -41 -13 -13 26 -34 88 -47
117 -25 201 -55 201 -72 0 -20 11 -23 26 -8 6 6 23 6 49 -1 70 -18 72 -20 31
-35 -36 -13 -45 -12 -103 7 -35 12 -66 26 -69 30 -3 5 -14 9 -24 9 -26 0 -364
125 -385 142 -5 4 -17 8 -27 8 -26 0 -22 17 5 24 13 3 55 -6 96 -19 40 -14 83
-25 94 -25 21 1 21 1 -3 14 -14 7 -49 19 -77 26 -52 12 -63 30 -20 30 24 0 93
22 144 45 17 8 37 15 45 16 7 0 36 11 63 24 50 24 115 33 115 16z m-782 -8
c-10 -2 -28 -2 -40 0 -13 2 -5 4 17 4 22 1 32 -1 23 -4z m3022 -40 c11 -12 12
-17 3 -20 -7 -3 -13 -19 -14 -36 0 -18 -3 -25 -6 -17 -4 8 -22 29 -42 47 -33
29 -37 30 -53 16 -16 -14 -18 -14 -18 -1 0 19 56 38 90 32 14 -3 32 -12 40
-21z m130 -18 c13 -14 21 -27 18 -30 -2 -3 -17 9 -33 25 -16 17 -24 30 -19 30
6 0 21 -11 34 -25z m-1245 -22 c13 -30 12 -33 -3 -33 -25 0 -42 20 -42 48 0
34 29 25 45 -15z m35 12 c0 -14 -4 -25 -10 -25 -11 0 -14 33 -3 43 11 11 13 8
13 -18z m50 -22 c0 -33 -24 -25 -28 10 -3 21 0 26 12 21 9 -3 16 -17 16 -31z
m833 9 c14 -12 17 -32 17 -107 0 -85 -2 -93 -25 -115 -14 -13 -25 -18 -25 -12
0 6 7 15 15 20 15 8 27 82 17 110 -8 23 -22 12 -16 -13 8 -31 -3 -33 -16 -2
-10 25 -10 27 -13 -100 -4 -119 -17 -75 -17 55 0 119 -2 134 -20 152 -21 21
-19 24 25 33 23 4 32 0 58 -21z m-748 9 c-3 -5 2 -12 10 -14 12 -4 12 -5 -1
-3 -19 1 -32 26 -14 26 6 0 9 -4 5 -9z m-1895 -26 c0 -8 -4 -15 -10 -15 -5 0
-10 7 -10 15 0 8 5 15 10 15 6 0 10 -7 10 -15z m1650 -17 c34 -19 40 -28 40
-55 0 -20 5 -33 13 -33 6 0 4 -5 -6 -11 -20 -12 -107 -2 -107 12 0 5 7 9 15 9
8 0 15 5 15 10 0 6 -7 10 -16 10 -12 0 -15 6 -10 23 3 12 6 30 6 40 0 22 3 22
50 -5z m182 0 c-7 -7 -12 -8 -12 -2 0 14 12 26 19 19 2 -3 -1 -11 -7 -17z
m193 10 c27 -12 36 -44 10 -34 -11 4 -15 -2 -16 -22 l-1 -27 -8 30 c-6 23 -8
25 -9 8 0 -12 -5 -25 -11 -28 -11 -7 -14 67 -3 78 8 9 8 9 38 -5z m-2407 -9
c-2 -6 -8 -10 -13 -10 -5 0 -11 4 -13 10 -2 6 4 11 13 11 9 0 15 -5 13 -11z
m421 -26 c-1 -10 -5 -29 -9 -43 l-8 -25 -1 28 -1 27 -85 0 c-107 0 -113 18 -7
23 42 1 85 4 95 5 11 1 17 -4 16 -15z m2121 -13 c0 -5 -2 -10 -4 -10 -3 0 -8
5 -11 10 -3 6 -1 10 4 10 6 0 11 -4 11 -10z m42 -30 c-2 -16 -8 -30 -13 -30
-10 0 -11 7 -3 38 9 33 21 27 16 -8z m-2009 -124 c32 -65 55 -121 52 -125 -8
-7 -14 3 -82 133 -55 104 -61 120 -41 114 7 -3 39 -58 71 -122z m497 109 c22
-8 28 -13 15 -13 -11 0 -36 6 -55 13 -22 8 -28 13 -15 13 11 0 36 -6 55 -13z
m-684 -19 c15 -11 20 -23 16 -45 -5 -33 -16 -40 -26 -16 -3 8 -15 15 -26 15
-11 0 -23 7 -26 15 -8 21 -24 19 -25 -2 0 -12 -2 -13 -6 -5 -7 18 26 52 51 52
12 0 31 -6 42 -14z m2821 -18 c-3 -7 -5 -2 -5 12 0 14 2 19 5 13 2 -7 2 -19 0
-25z m-2062 12 c3 -5 -1 -10 -10 -10 -9 0 -13 5 -10 10 3 6 8 10 10 10 2 0 7
-4 10 -10z m1532 -12 c-3 -8 -6 -5 -6 6 -1 11 2 17 5 13 3 -3 4 -12 1 -19z
m-473 -29 c8 -9 5 -10 -14 -5 -68 18 -87 17 -150 -8 -36 -15 -110 -40 -165
-56 -55 -16 -122 -39 -149 -51 l-49 -21 34 -15 c24 -10 30 -16 20 -22 -8 -5
-24 -3 -40 5 -14 8 -33 14 -42 14 -8 0 -23 6 -33 13 -22 16 -45 7 264 109 219
73 226 74 269 62 24 -7 49 -18 55 -25z m806 27 c0 -3 -4 -8 -10 -11 -5 -3 -10
-1 -10 4 0 6 5 11 10 11 6 0 10 -2 10 -4z m-2566 -32 c9 -22 8 -24 -9 -24 -8
0 -15 9 -15 20 0 24 15 27 24 4z m1483 10 c-3 -3 -12 -4 -19 -1 -8 3 -5 6 6 6
11 1 17 -2 13 -5z m343 -64 c14 -10 21 -22 17 -26 -4 -4 -15 0 -25 9 -10 10
-24 17 -31 17 -7 0 -9 5 -6 10 9 14 16 12 45 -10z m-67 -6 c35 -8 34 -17 -3
-31 -21 -8 -30 -8 -33 0 -2 6 -13 1 -26 -12 -30 -30 -36 -22 -15 23 12 24 23
35 33 32 9 -3 28 -8 44 -12z m830 1 c-3 -9 -8 -14 -10 -11 -3 3 -2 9 2 15 9
16 15 13 8 -4z m-1805 -16 c18 -6 30 -15 27 -19 -9 -14 16 -23 28 -11 13 13
37 15 37 3 0 -4 -14 -16 -31 -26 -29 -17 -33 -17 -82 -1 -80 26 -84 30 -51 48
37 19 35 19 72 6z m1280 -10 c17 -27 14 -30 -43 -32 -60 -2 -67 13 -17 35 48
21 45 21 60 -3z m-166 -4 c3 -3 2 -20 -1 -37 -5 -23 -14 -34 -33 -39 -22 -6
-28 -3 -34 14 -5 16 1 27 22 44 30 24 37 27 46 18z m659 -22 c-8 -15 -10 -15
-11 -2 0 17 10 32 18 25 2 -3 -1 -13 -7 -23z m-2594 -20 c-3 -10 -5 -4 -5 12
0 17 2 24 5 18 2 -7 2 -21 0 -30z m1443 12 c13 -14 20 -28 16 -32 -3 -4 -13 3
-22 15 -19 28 -39 30 -24 2 8 -15 7 -28 -6 -52 -16 -30 -18 -31 -25 -13 -9 24
-12 15 -14 -45 -4 -101 -5 -113 -12 -107 -3 4 -8 53 -10 109 -3 102 -3 103 25
125 34 29 43 29 72 -2z m111 8 c16 -10 29 -23 29 -30 0 -17 -6 -16 -34 2 -21
14 -24 14 -30 -1 -5 -12 -10 -14 -17 -7 -7 7 -7 17 3 32 15 25 13 25 49 4z
m414 -21 c0 -31 -19 -28 -23 4 -3 18 0 25 10 22 7 -3 13 -14 13 -26z m-959 -2
c26 -10 26 -11 8 -25 -23 -18 -74 -19 -109 -3 l-25 11 27 18 c28 18 49 18 99
-1z m634 6 c33 -13 33 -14 11 -26 -13 -6 -23 -10 -24 -8 -1 2 -8 13 -15 26
-14 26 -14 26 28 8z m120 -18 c0 -3 -9 -4 -20 -1 -16 4 -18 8 -9 20 10 11 14
11 20 1 5 -7 9 -16 9 -20z m-1246 -29 c56 -17 122 -42 148 -55 50 -25 135
-121 121 -135 -4 -4 -93 -35 -198 -69 -104 -33 -272 -88 -373 -121 -146 -48
-186 -58 -198 -49 -8 7 -14 18 -14 25 0 18 -87 113 -119 130 -15 7 -69 21
-121 30 -111 19 -212 50 -190 59 8 3 60 17 115 31 55 14 159 43 230 64 72 21
168 48 215 61 47 12 110 30 140 40 79 26 130 24 244 -11z m656 5 c0 -20 -9
-29 -44 -44 -41 -19 -46 -19 -92 -4 -58 20 -77 34 -46 34 13 0 36 7 51 14 15
8 37 13 47 10 11 -3 30 -1 44 5 37 14 40 13 40 -15z m666 -39 c7 -17 -23 -75
-38 -75 -9 0 -9 3 0 12 7 7 12 15 12 19 0 10 -42 19 -54 12 -10 -7 -56 -11
-56 -6 0 2 16 21 36 43 35 39 36 39 65 24 17 -8 32 -21 35 -29z m-118 13 c-3
-7 -14 -14 -26 -16 -13 -2 -19 -8 -15 -18 3 -8 0 -14 -6 -14 -6 0 -11 5 -11
10 0 6 -7 10 -15 10 -27 0 -16 19 18 29 46 13 59 13 55 -1z m226 -19 c36 -31
39 -59 6 -59 -21 0 -50 41 -50 70 0 26 3 26 44 -11z m-54 2 c0 -11 -11 -32
-25 -47 -29 -31 -32 -20 -8 31 18 39 33 46 33 16z m-350 -20 l85 -26 -4 -85
c-1 -47 -4 -87 -6 -88 -2 -2 -18 3 -37 12 -18 8 -51 19 -73 25 -66 17 -74 28
-75 101 -2 88 -2 90 13 89 6 0 50 -13 97 -28z m-325 -1 c3 -6 -1 -7 -9 -4 -18
7 -21 14 -7 14 6 0 13 -4 16 -10z m1005 -11 c-13 -6 -27 -14 -30 -18 -8 -12
-239 -116 -270 -122 -33 -6 -180 46 -180 63 0 13 32 9 89 -12 61 -24 72 -21
241 48 86 35 133 50 160 50 8 1 4 -4 -10 -9z m-530 -49 c8 -5 11 -12 8 -16
-10 -9 -58 4 -58 16 0 13 30 13 50 0z m-503 -30 c-6 -23 19 -43 67 -54 17 -4
41 -16 56 -26 14 -10 79 -39 145 -64 65 -25 125 -52 133 -60 12 -12 11 -16 -7
-25 -11 -7 -21 -16 -21 -22 0 -5 44 -31 98 -56 l97 -46 -84 -39 c-60 -28 -92
-37 -110 -33 -25 6 -25 6 11 27 23 14 38 30 40 45 3 22 4 22 32 8 16 -9 31
-13 34 -11 2 3 -8 11 -24 18 -16 7 -42 23 -57 35 -16 13 -37 23 -48 23 -12 0
-25 13 -36 38 -18 36 -21 38 -185 92 -151 50 -196 70 -153 70 8 0 15 5 15 10
0 14 -23 13 -38 -2 -9 -9 -25 -8 -67 2 -62 15 -74 24 -47 35 42 19 138 54 146
54 4 1 6 -8 3 -19z m563 -60 c0 -17 -15 -11 -28 11 -12 19 -11 19 8 9 11 -6
20 -15 20 -20z m-723 -12 c273 -87 438 -146 434 -154 -4 -8 -154 -71 -346
-146 -27 -10 -63 -25 -80 -32 -16 -7 -57 -23 -90 -36 -33 -12 -114 -45 -180
-72 -66 -28 -131 -52 -145 -55 -16 -3 -68 16 -150 54 -119 56 -390 200 -390
208 0 2 114 41 253 86 138 44 317 103 397 130 80 26 157 48 172 49 15 0 71
-14 125 -32z m1343 -156 c0 -14 -31 -11 -131 14 -31 8 -61 14 -66 14 -5 0 -33
-37 -63 -81 -41 -64 -49 -83 -39 -90 24 -15 2 -10 -36 8 -40 19 -39 10 -12
163 l12 64 100 32 100 32 67 -72 c37 -39 67 -77 68 -84z m-613 26 c-2 -18 -4
-6 -4 27 0 33 2 48 4 33 2 -15 2 -42 0 -60z m-2338 45 c0 -10 1 -27 3 -38 2
-16 -5 -21 -46 -28 -41 -8 -54 -6 -94 14 l-47 23 45 12 c25 7 59 17 75 22 46
16 64 14 64 -5z m2281 -62 c0 -5 17 -16 38 -24 33 -13 75 -47 59 -47 -11 0
-136 30 -153 37 -12 5 -15 3 -9 -6 5 -9 2 -12 -10 -9 -31 5 -27 23 7 40 37 19
68 23 68 9z m-2182 -21 c20 -12 55 -32 77 -45 22 -13 51 -29 65 -36 24 -11 24
-12 -25 -25 -49 -13 -90 -10 -80 6 2 4 -9 10 -26 14 -28 5 -30 8 -18 23 13 16
12 17 -4 4 -15 -12 -23 -11 -61 10 -25 13 -43 26 -40 30 2 4 -5 5 -16 2 -11
-3 -20 -1 -20 4 0 9 58 29 93 32 10 0 34 -8 55 -19z m2348 -36 c37 -9 29 -20
-32 -44 -41 -17 -58 -20 -67 -11 -6 6 -18 11 -27 11 -9 0 -25 7 -36 15 -17 13
-12 14 50 8 68 -6 69 -6 63 16 -4 17 -2 21 10 17 8 -3 26 -9 39 -12z m414 -20
c16 -16 7 -40 -24 -58 -14 -9 -22 -5 -44 22 -28 34 -42 34 -42 -1 0 -10 9 -21
20 -24 19 -5 29 -23 12 -23 -14 0 -52 31 -52 42 0 6 8 20 17 30 16 18 17 18
44 -8 17 -17 34 -24 44 -20 19 7 16 40 -3 42 -6 1 -16 2 -22 3 -5 0 -10 6 -10
12 0 13 40 2 60 -17z m-2540 -53 c0 -5 -3 -11 -7 -14 -5 -2 -2 -2 5 0 11 2 72
-23 72 -30 0 -8 -123 -4 -159 5 l-45 12 50 17 c56 20 84 23 84 10z m2415 -58
c19 -14 19 -15 -5 -8 -14 4 -34 14 -45 22 -19 14 -19 15 5 8 14 -4 34 -14 45
-22z m-2105 -33 c-24 -15 -36 -11 -14 4 10 8 21 12 24 10 2 -3 -2 -9 -10 -14z
m2176 5 c25 -19 14 -19 -22 0 -16 8 -22 15 -13 15 8 0 24 -7 35 -15z m-691 -5
c3 -6 0 -12 -7 -14 -7 -2 -50 -15 -94 -30 -45 -14 -85 -26 -90 -26 -17 1 141
77 163 78 12 1 25 -3 28 -8z m-1070 -200 c3 -6 -1 -7 -9 -4 -18 7 -21 14 -7
14 6 0 13 -4 16 -10z m75 -40 c8 -5 11 -10 5 -10 -5 0 -17 5 -25 10 -8 5 -10
10 -5 10 6 0 17 -5 25 -10z"/>
<path d="M3421 4316 c-9 -11 -9 -19 0 -34 7 -11 9 -26 6 -35 -7 -18 -74 -56
-127 -73 -26 -8 -36 -18 -42 -42 -5 -18 -22 -53 -38 -79 -33 -52 -37 -75 -16
-92 20 -16 49 -79 55 -120 5 -30 11 -35 53 -46 55 -14 118 -59 118 -84 0 -9
-5 -22 -12 -29 -10 -9 -9 -15 3 -27 13 -13 17 -13 34 -1 16 12 18 17 8 27 -37
37 14 91 105 114 41 11 47 16 50 41 4 37 21 82 44 116 24 36 23 50 -12 105
-18 28 -30 60 -30 80 0 26 -4 33 -20 33 -29 0 -140 58 -147 77 -3 8 -1 24 6
35 9 15 9 23 0 34 -6 8 -15 14 -19 14 -4 0 -13 -6 -19 -14z m99 -137 c48 -24
80 -47 80 -56 0 -9 14 -40 31 -70 l32 -55 -27 -51 c-14 -28 -26 -45 -26 -37 1
8 7 26 15 40 21 36 19 40 -20 40 -19 0 -35 5 -35 10 0 6 16 10 36 10 l35 0
-27 51 -28 50 -14 -43 c-21 -66 -17 -100 18 -160 6 -10 10 -31 10 -46 0 -24
-7 -32 -42 -47 -24 -10 -46 -20 -50 -23 -5 -2 -8 1 -8 6 0 6 16 16 35 22 19 6
38 16 41 22 7 10 -43 57 -61 58 -9 0 -49 -92 -50 -115 0 -5 -5 -13 -12 -18
-14 -9 -45 2 -38 14 3 4 -7 33 -22 63 l-28 55 -32 -20 c-40 -26 -42 -45 -5
-52 16 -3 39 -15 53 -26 19 -17 20 -19 4 -13 -92 39 -105 46 -105 64 0 18 -36
93 -62 130 -10 13 -7 24 15 55 15 22 27 44 27 51 0 7 5 12 10 12 14 0 13 -5
-10 -42 -11 -18 -20 -36 -20 -39 0 -4 18 -9 40 -11 47 -4 51 7 20 67 -23 45
-26 75 -7 75 6 0 41 16 77 34 36 19 66 35 68 35 1 1 38 -17 82 -40z"/>
<path d="M3370 4169 c-19 -10 -43 -20 -52 -23 -23 -7 -23 -33 1 -79 22 -43 26
-40 67 48 15 33 30 63 32 68 6 11 -9 7 -48 -14z"/>
<path d="M3460 4184 c0 -11 74 -154 80 -154 7 0 26 47 34 83 5 21 2 29 -11 34
-17 6 -79 33 -95 41 -5 2 -8 0 -8 -4z"/>
<path d="M3381 4074 c-88 -180 -100 -225 -47 -175 21 19 23 27 15 48 -5 14 -7
28 -4 31 3 3 9 -8 15 -24 10 -28 12 -29 76 -28 50 2 69 6 80 20 14 18 15 17
10 -7 -4 -20 1 -30 24 -48 24 -17 30 -18 30 -7 0 21 -32 86 -42 86 -4 0 -8 10
-8 23 0 12 -13 47 -30 77 -16 30 -35 67 -41 83 -6 15 -14 27 -19 27 -4 0 -30
-48 -59 -106z m73 -71 c3 -10 11 -26 18 -35 7 -9 9 -20 5 -24 -4 -4 -14 1 -21
12 -14 18 -15 18 -35 0 -25 -23 -27 -11 -5 32 17 36 29 40 38 15z"/>
<path d="M3269 3992 l-37 -3 25 -52 26 -52 12 41 c7 23 15 46 19 52 9 14 -2
18 -45 14z"/>
<path d="M3380 3905 c0 -10 54 -115 60 -115 7 0 50 94 50 109 0 7 -21 11 -55
11 -30 0 -55 -2 -55 -5z"/>
<path d="M3807 4270 c-28 -24 -33 -35 -30 -62 4 -35 35 -101 61 -131 14 -16
17 -16 33 -1 20 18 54 109 45 122 -2 4 -1 14 4 22 7 11 0 24 -22 47 -18 18
-38 33 -45 33 -7 0 -27 -13 -46 -30z m59 5 c17 -16 14 -18 -10 -9 -9 3 -16 10
-16 15 0 13 9 11 26 -6z m-16 -26 c0 -5 -4 -9 -9 -9 -5 0 -17 -3 -26 -6 -15
-6 -15 -4 -4 14 12 19 39 20 39 1z m50 -3 c0 -3 -4 -8 -10 -11 -5 -3 -10 -1
-10 4 0 6 5 11 10 11 6 0 10 -2 10 -4z m-40 -26 c0 -5 -4 -10 -10 -10 -5 0
-10 5 -10 10 0 6 5 10 10 10 6 0 10 -4 10 -10z m7 -74 c0 -8 -6 -12 -15 -9
-11 5 -11 7 0 14 7 5 13 9 14 9 0 0 1 -6 1 -14z m-17 -37 c0 -5 4 -7 10 -4 6
3 7 -1 4 -10 -5 -12 -9 -13 -20 -4 -16 13 -18 29 -4 29 6 0 10 -5 10 -11z"/>
<path d="M4150 3955 c0 -24 -31 -65 -49 -65 -5 0 -3 -13 5 -30 9 -16 13 -38
10 -48 -4 -12 5 -26 30 -46 26 -21 35 -34 32 -50 -6 -32 18 -52 40 -34 9 7 20
18 25 23 4 6 13 3 22 -9 13 -18 16 -18 28 -4 20 25 60 48 84 48 19 0 23 5 23
31 0 22 9 40 31 60 35 33 30 35 -31 14 -23 -8 -53 -15 -66 -15 -14 0 -24 -6
-24 -14 0 -8 -12 -24 -27 -36 l-28 -22 -6 24 c-3 14 -12 22 -23 22 -14 -2 -17
6 -15 45 2 35 -4 56 -24 89 -31 49 -37 51 -37 17z"/>
<path d="M5680 3957 c-15 -8 -26 -22 -27 -37 -1 -14 0 -18 3 -10 3 8 18 25 32
37 30 26 28 28 -8 10z"/>
<path d="M5600 3835 c-13 -14 -20 -25 -16 -25 4 0 19 11 34 25 15 14 22 25 16
25 -6 0 -21 -11 -34 -25z"/>
<path d="M4945 3589 c-4 -6 -5 -12 -2 -15 2 -3 7 2 10 11 7 17 1 20 -8 4z"/>
<path d="M5760 3570 c-9 -6 -10 -10 -3 -10 6 0 15 5 18 10 8 12 4 12 -15 0z"/>
<path d="M5860 3070 c-9 -6 -10 -10 -3 -10 6 0 15 5 18 10 8 12 4 12 -15 0z"/>
<path d="M5530 2815 c-11 -13 -10 -14 4 -9 9 3 16 10 16 15 0 13 -6 11 -20 -6z"/>
<path d="M5185 2781 c-40 -7 -40 -7 21 -14 35 -4 71 -4 85 2 23 9 23 10 -8 10
-17 1 -37 3 -45 5 -7 1 -31 0 -53 -3z"/>
<path d="M5474 2748 l-19 -23 23 19 c12 11 22 21 22 23 0 8 -8 2 -26 -19z"/>
<path d="M5253 2658 c-23 -30 -24 -41 -2 -21 12 12 20 25 17 28 -3 3 -10 0
-15 -7z"/>
<path d="M4410 4358 c0 -7 -12 -24 -25 -37 -14 -13 -25 -26 -25 -30 0 -4 15
-22 34 -40 l34 -33 16 31 c16 30 16 31 -4 31 -11 0 -20 -4 -20 -10 0 -5 -5
-10 -11 -10 -21 0 -4 45 19 48 26 4 26 3 10 37 -12 26 -28 34 -28 13z"/>
<path d="M2790 3650 c0 -5 5 -10 10 -10 6 0 10 5 10 10 0 6 -4 10 -10 10 -5 0
-10 -4 -10 -10z"/>
<path d="M2928 3393 c7 -3 16 -2 19 1 4 3 -2 6 -13 5 -11 0 -14 -3 -6 -6z"/>
<path d="M6013 2683 c-14 -5 -18 -33 -5 -33 10 0 32 22 32 32 0 9 -8 9 -27 1z"/>
<path d="M3803 2825 c-1 -19 3 -35 7 -35 10 0 22 48 15 60 -12 20 -21 9 -22
-25z"/>
<path d="M2669 2819 c-10 -19 -9 -20 11 -14 12 4 27 1 35 -5 12 -10 15 -10 15
2 0 17 -20 38 -37 38 -7 0 -17 -9 -24 -21z"/>
<path d="M4195 2840 c3 -5 11 -10 16 -10 6 0 7 5 4 10 -3 6 -11 10 -16 10 -6
0 -7 -4 -4 -10z"/>
<path d="M5496 2616 c-18 -9 -24 -15 -15 -18 8 -3 23 3 33 13 22 22 21 22 -18
5z"/>
<path d="M5435 2580 c-3 -5 -2 -10 4 -10 5 0 13 5 16 10 3 6 2 10 -4 10 -5 0
-13 -4 -16 -10z"/>
<path d="M5806 2645 c-3 -9 0 -15 8 -15 7 0 13 7 13 15 0 8 -4 15 -8 15 -4 0
-9 -7 -13 -15z"/>
<path d="M4819 2549 c-19 -16 -20 -18 -4 -10 34 17 51 31 39 31 -7 0 -22 -9
-35 -21z"/>
<path d="M4761 2523 c-22 -9 -85 -53 -75 -53 5 0 32 14 59 30 45 27 53 37 16
23z"/>
<path d="M4625 2449 c-16 -10 -26 -19 -22 -19 11 0 67 29 67 35 0 9 -15 4 -45
-16z"/>
<path d="M4518 2392 c-37 -21 -73 -43 -80 -50 -16 -17 121 56 142 75 21 19 12
16 -62 -25z"/>
<path d="M3500 2512 c-57 -29 -100 -56 -100 -64 0 -13 11 -9 59 19 89 51 118
84 41 45z"/>
<path d="M4745 2104 c-19 -20 -16 -43 8 -58 34 -22 73 27 47 59 -16 19 -35 19
-55 -1z m38 -29 c-3 -8 -9 -15 -14 -15 -10 0 -12 24 -3 33 11 11 24 -3 17 -18z"/>
<path d="M4860 2090 c0 -5 9 -10 20 -10 11 0 20 5 20 10 0 6 -9 10 -20 10 -11
0 -20 -4 -20 -10z"/>
<path d="M4902 2046 c-35 -18 -67 -37 -73 -43 -5 -5 -18 -46 -29 -91 l-20 -81
56 -53 c31 -29 60 -55 65 -56 10 -4 135 45 155 60 6 5 20 47 29 94 l18 85 -59
60 c-32 32 -63 59 -69 58 -5 0 -38 -15 -73 -33z m112 -24 l19 -27 -27 25 c-23
20 -30 22 -46 12 -11 -7 -28 -12 -37 -12 -11 1 -5 8 17 19 40 22 48 20 74 -17z
m2 -33 l29 -30 -27 10 c-16 6 -28 9 -28 7 0 -3 -3 -11 -6 -20 -5 -13 0 -15 27
-10 l34 5 -35 -20 c-43 -25 -50 -25 -50 -5 0 15 21 94 25 94 1 0 14 -14 31
-31z m-175 -20 c-5 -13 -10 -19 -10 -12 -1 15 10 45 15 40 3 -2 0 -15 -5 -28z
m93 25 c20 -8 21 -34 1 -60 -8 -10 -15 -27 -15 -36 0 -14 -9 -18 -41 -18 -34
0 -40 3 -35 18 3 9 8 29 12 44 8 36 22 27 16 -10 -4 -32 13 -51 31 -33 7 7 6
12 -6 17 -9 3 -17 13 -17 22 0 13 3 12 20 -3 27 -25 25 -7 -2 22 -19 20 -20
25 -8 33 18 11 23 12 44 4z m146 -54 c0 -11 -4 -20 -9 -20 -5 0 -7 9 -4 20 3
11 7 20 9 20 2 0 4 -9 4 -20z m-40 -60 c0 -22 -5 -40 -11 -40 -5 0 -7 -5 -3
-11 4 -7 1 -10 -7 -7 -8 3 -14 14 -14 25 0 12 -3 25 -7 29 -20 19 -6 37 35 43
4 0 7 -17 7 -39z m-213 -2 c-3 -8 -6 -5 -6 6 -1 11 2 17 5 13 3 -3 4 -12 1
-19z m173 -21 c0 -6 -9 -2 -20 8 -11 10 -20 23 -20 28 0 6 9 2 20 -8 11 -10
20 -23 20 -28z m-133 7 c-3 -3 -12 -4 -19 -1 -8 3 -5 6 6 6 11 1 17 -2 13 -5z
m102 -68 c-17 -10 -32 -16 -36 -13 -9 10 6 39 17 32 6 -4 7 6 3 27 l-6 33 25
-30 26 -30 -29 -19z m-144 54 c-3 -5 -11 -10 -16 -10 -6 0 -7 5 -4 10 3 6 11
10 16 10 6 0 7 -4 4 -10z m91 -35 l-6 -25 -35 22 -34 23 37 10 c40 12 47 7 38
-30z m-13 -53 c5 -8 17 -10 30 -7 17 5 19 4 7 -4 -8 -6 -18 -11 -21 -11 -10 0
-79 65 -79 75 0 9 50 -33 63 -53z m142 39 c-3 -6 -11 -11 -17 -11 -6 0 -6 6 2
15 14 17 26 13 15 -4z"/>
<path d="M4906 1976 c3 -9 11 -16 16 -16 13 0 5 23 -10 28 -7 2 -10 -2 -6 -12z"/>
<path d="M5060 2066 c0 -9 30 -14 35 -6 4 6 -3 10 -14 10 -12 0 -21 -2 -21 -4z"/>
<path d="M5160 2051 c0 -12 26 -21 58 -21 15 0 22 4 17 9 -14 12 -75 22 -75
12z"/>
<path d="M4720 2011 c0 -5 11 -11 25 -13 28 -6 34 6 9 16 -22 8 -34 7 -34 -3z"/>
<path d="M5150 2000 c0 -5 18 -10 41 -10 24 0 38 4 34 10 -3 6 -22 10 -41 10
-19 0 -34 -4 -34 -10z"/>
<path d="M5140 1961 c0 -11 69 -20 75 -10 5 7 -29 19 -57 19 -10 0 -18 -4 -18
-9z"/>
<path d="M4720 1950 c20 -13 40 -13 40 0 0 6 -12 10 -27 10 -22 0 -25 -2 -13
-10z"/>
<path d="M4676 1914 c-3 -9 -6 -23 -5 -32 0 -14 2 -14 6 -2 3 8 12 23 21 33
14 15 14 17 0 17 -9 0 -19 -7 -22 -16z"/>
<path d="M4720 1891 c0 -12 5 -21 10 -21 6 0 10 6 10 14 0 8 -4 18 -10 21 -5
3 -10 -3 -10 -14z"/>
<path d="M5140 1891 c0 -10 50 -25 57 -17 3 2 2 9 -2 15 -8 13 -55 15 -55 2z"/>
<path d="M5135 1850 c3 -5 17 -10 31 -10 14 0 22 4 19 10 -3 6 -17 10 -31 10
-14 0 -22 -4 -19 -10z"/>
<path d="M4660 1831 c0 -10 34 -21 68 -21 33 0 27 17 -9 24 -43 8 -59 8 -59
-3z"/>
<path d="M5120 1822 c0 -11 49 -26 58 -17 8 7 0 12 -31 20 -16 4 -27 3 -27 -3z"/>
<path d="M5113 1776 c4 -14 57 -21 57 -8 0 5 -14 12 -30 14 -19 3 -29 1 -27
-6z"/>
<path d="M4637 1773 c-12 -11 -8 -23 8 -23 8 0 15 7 15 15 0 16 -12 20 -23 8z"/>
<path d="M4687 1774 c-4 -4 -7 -14 -7 -23 0 -11 3 -12 11 -4 6 6 10 16 7 23
-2 6 -7 8 -11 4z"/>
<path d="M4724 1756 c-8 -22 3 -33 18 -18 9 9 9 15 0 24 -9 9 -13 7 -18 -6z"/>
<path d="M4780 1730 c20 -13 53 -13 45 0 -3 6 -18 10 -33 10 -21 0 -24 -2 -12
-10z"/>
<path d="M5057 1714 c-8 -8 1 -24 14 -24 5 0 9 7 9 15 0 15 -12 20 -23 9z"/>
<path d="M5092 1699 c2 -6 8 -10 13 -10 5 0 11 4 13 10 2 6 -4 11 -13 11 -9 0
-15 -5 -13 -11z"/>
<path d="M5136 1703 c-11 -11 -6 -23 9 -23 8 0 15 4 15 9 0 13 -16 22 -24 14z"/>
<path d="M4955 1690 c3 -5 18 -10 33 -10 21 0 24 2 12 10 -20 13 -53 13 -45 0z"/>
<path d="M5050 1665 c0 -8 5 -15 10 -15 6 0 10 7 10 15 0 8 -4 15 -10 15 -5 0
-10 -7 -10 -15z"/>
<path d="M5090 1661 c0 -6 5 -13 10 -16 6 -3 10 1 10 9 0 9 -4 16 -10 16 -5 0
-10 -4 -10 -9z"/>
<path d="M5130 1650 c0 -5 5 -10 10 -10 6 0 10 5 10 10 0 6 -4 10 -10 10 -5 0
-10 -4 -10 -10z"/>
<path d="M6080 1989 c-23 -42 43 -81 82 -49 21 17 21 18 5 44 -22 33 -71 36
-87 5z"/>
<path d="M4435 1633 c-11 -3 -33 -11 -50 -18 -16 -7 -52 -21 -80 -30 -46 -17
-48 -19 -26 -29 19 -8 26 -7 36 7 13 18 55 24 55 7 0 -5 -9 -10 -19 -10 -29 0
-35 -17 -8 -23 12 -2 121 -32 242 -65 121 -33 234 -62 250 -65 17 -3 42 -9 56
-12 20 -5 51 4 118 36 50 23 91 47 91 54 0 6 -51 24 -117 40 -65 16 -187 46
-271 67 -155 38 -240 51 -277 41z m75 -23 c0 -13 -20 -13 -40 0 -12 8 -9 10
13 10 15 0 27 -4 27 -10z m-60 -10 c0 -5 -7 -10 -15 -10 -8 0 -15 5 -15 10 0
6 7 10 15 10 8 0 15 -4 15 -10z m158 -7 c17 -3 32 -9 32 -15 0 -5 -8 -7 -17
-4 -10 2 -37 8 -60 11 -24 4 -43 11 -43 17 0 6 11 8 28 3 15 -3 42 -9 60 -12z
m-198 -3 c0 -5 7 -10 15 -10 8 0 15 -4 15 -10 0 -13 -3 -13 -34 3 -14 8 -23
17 -19 20 10 10 23 8 23 -3z m110 -10 c26 -8 26 -9 -2 -15 -10 -2 -18 1 -18 5
0 5 -10 11 -22 13 -19 4 -20 4 -3 5 11 0 31 -4 45 -8z m175 -13 c16 -13 14
-15 -26 -22 -37 -7 -39 -9 -17 -12 14 -2 32 -11 38 -18 10 -13 4 -14 -40 -10
-28 2 -57 8 -63 13 -14 12 -127 36 -133 29 -3 -2 12 -8 32 -11 20 -4 44 -11
53 -16 9 -4 27 -13 41 -18 22 -10 21 -10 -10 -5 -19 3 -61 14 -92 24 -32 11
-69 19 -83 19 -16 0 -24 4 -20 10 4 6 21 8 40 4 19 -3 35 -1 39 5 5 7 13 8 24
2 9 -5 37 -12 62 -16 25 -4 53 -11 63 -17 11 -5 17 -5 17 2 0 5 -7 10 -15 10
-8 0 -15 5 -15 10 0 6 10 8 23 5 15 -4 28 -1 36 9 16 19 22 20 46 3z m-115 -7
c0 -5 -7 -10 -15 -10 -8 0 -15 5 -15 10 0 6 7 10 15 10 8 0 15 -4 15 -10z
m190 -10 c12 -7 8 -10 -15 -10 -27 0 -28 -1 -12 -17 15 -16 18 -16 36 1 11 10
30 16 43 14 18 -3 7 -12 -54 -41 -42 -20 -82 -37 -88 -37 -23 0 -8 18 28 32
l37 15 -30 12 -29 12 24 14 c31 16 41 17 60 5z m125 -30 l20 -8 -20 -7 c-11
-3 -28 -11 -37 -16 -23 -12 -48 -12 -48 1 0 6 11 10 25 10 16 0 25 6 25 15 0
17 6 17 35 5z m63 -28 c3 -9 -2 -13 -14 -10 -9 1 -19 9 -22 16 -3 9 2 13 14
10 9 -1 19 -9 22 -16z m-303 -2 c-3 -5 -13 -10 -21 -10 -8 0 -14 5 -14 10 0 6
9 10 21 10 11 0 17 -4 14 -10z m152 -16 c5 -16 -57 -38 -70 -25 -8 8 -6 11 10
11 11 0 24 7 27 16 6 16 27 15 33 -2z m117 0 c5 -13 1 -15 -20 -10 -14 4 -23
3 -20 -2 6 -10 -71 -39 -79 -30 -6 6 83 57 101 57 7 1 15 -6 18 -15z m116 6
c0 -5 -12 -10 -27 -10 -14 0 -23 -3 -20 -6 8 -9 -80 -54 -105 -54 -20 0 -25
19 -5 22 38 4 65 16 89 40 19 19 68 25 68 8z"/>
<path d="M3595 1650 c-9 -14 3 -30 23 -30 15 0 15 2 2 10 -10 6 -11 10 -2 10
6 0 12 5 12 10 0 6 -6 10 -14 10 -8 0 -18 -4 -21 -10z"/>
<path d="M3960 1520 c0 -5 4 -10 9 -10 6 0 13 5 16 10 3 6 -1 10 -9 10 -9 0
-16 -4 -16 -10z"/>
<path d="M5589 1213 c-12 -16 -12 -17 2 -6 9 7 19 10 22 6 4 -3 7 -1 7 5 0 17
-16 15 -31 -5z"/>
<path d="M5068 1213 c6 -2 18 -2 25 0 6 3 1 5 -13 5 -14 0 -19 -2 -12 -5z"/>
<path d="M3938 1143 c7 -3 16 -2 19 1 4 3 -2 6 -13 5 -11 0 -14 -3 -6 -6z"/>
<path d="M4215 1140 c11 -5 27 -9 35 -9 9 0 8 4 -5 9 -11 5 -27 9 -35 9 -9 0
-8 -4 5 -9z"/>
<path d="M3898 1133 c7 -3 16 -2 19 1 4 3 -2 6 -13 5 -11 0 -14 -3 -6 -6z"/>
<path d="M3820 1114 c-31 -11 -32 -13 -10 -14 15 0 42 -17 68 -41 24 -23 45
-39 48 -36 3 2 -14 21 -37 41 -35 30 -40 38 -29 51 15 18 8 17 -40 -1z"/>
<path d="M3880 1106 c0 -3 9 -10 20 -16 11 -6 20 -8 20 -6 0 3 -9 10 -20 16
-11 6 -20 8 -20 6z"/>
<path d="M4311 1106 c2 -2 15 -9 29 -15 24 -11 24 -11 6 3 -16 13 -49 24 -35
12z"/>
<path d="M3748 1093 c7 -3 16 -2 19 1 4 3 -2 6 -13 5 -11 0 -14 -3 -6 -6z"/>
<path d="M4098 1093 c7 -3 16 -2 19 1 4 3 -2 6 -13 5 -11 0 -14 -3 -6 -6z"/>
<path d="M4218 1088 c19 -19 14 -30 -9 -23 -18 6 -20 4 -14 -15 5 -15 4 -20
-4 -16 -6 4 -11 2 -11 -3 0 -6 -12 -11 -26 -11 -14 0 -23 -4 -19 -10 3 -6 -6
-15 -21 -20 -25 -10 -26 -11 -9 -24 11 -8 16 -20 12 -30 -4 -10 -1 -16 8 -16
8 0 18 14 23 32 10 38 31 48 39 19 6 -25 23 -18 23 10 0 11 7 22 15 25 8 4 15
15 15 26 0 11 8 22 20 25 11 3 20 14 20 24 0 15 -7 19 -37 19 -29 0 -34 -3
-25 -12z"/>
<path d="M3648 1063 c7 -3 16 -2 19 1 4 3 -2 6 -13 5 -11 0 -14 -3 -6 -6z"/>
<path d="M3947 1059 c7 -7 15 -10 18 -7 3 3 -2 9 -12 12 -14 6 -15 5 -6 -5z"/>
<path d="M4395 1039 c14 -18 22 -36 18 -40 -5 -5 -36 -16 -68 -24 -32 -9 -64
-20 -69 -24 -6 -5 -37 -14 -68 -21 -32 -6 -60 -16 -63 -21 -12 -19 -41 -8 -64
26 -33 49 -46 44 -14 -5 31 -47 41 -49 143 -15 41 13 109 35 150 48 40 13 76
29 77 34 5 13 -45 73 -59 73 -5 0 2 -14 17 -31z"/>
<path d="M3608 1053 c7 -3 16 -2 19 1 4 3 -2 6 -13 5 -11 0 -14 -3 -6 -6z"/>
<path d="M3710 1053 c0 -8 62 -64 67 -59 4 4 -55 66 -63 66 -2 0 -4 -3 -4 -7z"/>
<path d="M3765 1050 c4 -6 11 -8 16 -5 5 4 9 1 9 -4 0 -15 27 -14 33 2 3 8 -7
13 -30 15 -21 1 -32 -2 -28 -8z"/>
<path d="M4016 1007 c3 -10 9 -15 12 -12 3 3 0 11 -7 18 -10 9 -11 8 -5 -6z"/>
<path d="M3405 1000 c-3 -5 0 -10 9 -10 8 0 23 -3 33 -7 16 -6 16 -5 4 10 -15
19 -37 22 -46 7z"/>
<path d="M3611 1001 c-14 -4 -26 -12 -28 -18 -5 -15 47 -27 60 -14 6 6 21 11
34 11 26 0 31 15 7 24 -19 7 -40 6 -73 -3z"/>
<path d="M3510 967 c19 -7 37 -12 39 -10 9 6 -6 13 -40 18 l-34 6 35 -14z"/>
<path d="M3796 961 c-4 -5 3 -7 13 -4 38 10 111 -55 111 -99 0 -7 -22 -21 -49
-31 l-50 -17 -45 47 c-25 27 -46 54 -46 61 0 7 -5 10 -10 7 -7 -4 2 -22 22
-45 18 -21 43 -49 54 -64 l22 -25 113 38 c62 21 115 44 117 51 5 14 -29 80
-41 80 -4 0 -1 -10 7 -22 31 -43 17 -70 -41 -82 -26 -6 -32 -4 -38 13 -11 36
-81 101 -109 101 -13 0 -27 -4 -30 -9z"/>
<path d="M3910 960 c0 -6 7 -13 15 -17 24 -9 27 1 5 15 -13 8 -20 8 -20 2z"/>
<path d="M3636 926 c17 -8 39 -24 47 -37 9 -12 19 -20 22 -17 9 9 -64 68 -83
68 -10 -1 -4 -7 14 -14z"/>
<path d="M3944 914 c3 -9 6 -18 6 -20 0 -2 6 -4 14 -4 9 0 12 7 9 20 -3 11
-12 20 -20 20 -10 0 -13 -6 -9 -16z"/>
<path d="M3822 902 c-9 -6 -7 -14 8 -30 21 -23 40 -29 40 -13 0 5 -9 11 -20
14 -13 3 -18 10 -14 21 7 18 5 19 -14 8z"/>
<path d="M5500 1146 c0 -9 5 -16 10 -16 6 0 10 4 10 9 0 6 -4 13 -10 16 -5 3
-10 -1 -10 -9z"/>
<path d="M5646 1105 c4 -9 11 -14 16 -13 15 5 11 23 -6 26 -11 2 -14 -2 -10
-13z"/>
<path d="M5155 1110 c3 -5 13 -10 21 -10 8 0 12 5 9 10 -3 6 -13 10 -21 10 -8
0 -12 -4 -9 -10z"/>
<path d="M5160 1041 c0 -22 4 -42 8 -45 5 -3 9 15 9 39 0 25 -4 45 -9 45 -4 0
-8 -18 -8 -39z"/>
<path d="M5202 1068 c-20 -20 -14 -58 14 -83 37 -34 44 -32 44 18 0 30 -6 49
-18 60 -22 20 -25 20 -40 5z m27 -35 c0 -25 -1 -26 -9 -8 -12 27 -12 35 0 35
6 0 10 -12 9 -27z"/>
<path d="M5270 1051 c0 -10 30 -24 37 -17 3 3 2 9 -2 15 -8 13 -35 15 -35 2z"/>
<path d="M5280 980 c-13 -8 -13 -11 2 -27 21 -20 45 -5 35 21 -7 18 -16 20
-37 6z"/>
<path d="M4600 966 c0 -2 7 -6 15 -10 8 -3 15 -1 15 4 0 6 -7 10 -15 10 -8 0
-15 -2 -15 -4z"/>
<path d="M4770 910 c0 -5 5 -10 11 -10 5 0 7 5 4 10 -3 6 -8 10 -11 10 -2 0
-4 -4 -4 -10z"/>
<path d="M4808 893 c7 -3 16 -2 19 1 4 3 -2 6 -13 5 -11 0 -14 -3 -6 -6z"/>
<path d="M4545 880 c-3 -6 1 -7 9 -4 18 7 21 14 7 14 -6 0 -13 -4 -16 -10z"/>
<path d="M4848 883 c7 -3 16 -2 19 1 4 3 -2 6 -13 5 -11 0 -14 -3 -6 -6z"/>
<path d="M4325 870 c-3 -5 -16 -10 -27 -10 -12 0 -19 -3 -16 -6 9 -9 78 7 72
17 -7 12 -21 11 -29 -1z"/>
<path d="M4880 871 c0 -5 10 -11 23 -15 38 -10 43 -7 13 9 -33 17 -36 18 -36
6z"/>
<path d="M4462 848 c-13 -13 1 -48 20 -48 7 0 6 5 -2 15 -7 8 -10 22 -6 30 7
18 4 19 -12 3z"/>
<path d="M4765 840 c3 -5 8 -10 11 -10 2 0 4 5 4 10 0 6 -5 10 -11 10 -5 0 -7
-4 -4 -10z"/>
<path d="M4958 843 c7 -3 16 -2 19 1 4 3 -2 6 -13 5 -11 0 -14 -3 -6 -6z"/>
<path d="M4200 826 c0 -2 7 -7 16 -10 8 -3 12 -2 9 4 -6 10 -25 14 -25 6z"/>
<path d="M4300 815 c-7 -9 -8 -15 -2 -15 5 0 12 7 16 15 3 8 4 15 2 15 -2 0
-9 -7 -16 -15z"/>
<path d="M4414 806 c-1 -14 4 -27 10 -29 8 -3 11 4 8 24 -5 35 -16 38 -18 5z"/>
<path d="M5020 819 c24 -10 24 -11 6 -25 -11 -8 -24 -14 -30 -14 -5 0 -7 -3
-4 -6 3 -3 23 2 44 11 37 16 38 17 20 31 -11 8 -29 14 -40 13 -19 0 -18 -1 4
-10z"/>
<path d="M4158 813 c7 -3 16 -2 19 1 4 3 -2 6 -13 5 -11 0 -14 -3 -6 -6z"/>
<path d="M4326 804 c-4 -10 -1 -14 6 -12 15 5 23 28 10 28 -5 0 -13 -7 -16
-16z"/>
<path d="M4360 809 c0 -5 5 -7 10 -4 6 3 10 8 10 11 0 2 -4 4 -10 4 -5 0 -10
-5 -10 -11z"/>
<path d="M4900 785 c-25 -13 -41 -24 -37 -25 15 0 75 28 81 39 9 14 9 14 -44
-14z"/>
<path d="M4200 791 c0 -5 7 -12 16 -15 14 -5 15 -4 4 9 -14 17 -20 19 -20 6z"/>
<path d="M4500 792 c0 -5 12 -14 26 -20 14 -7 23 -8 19 -2 -9 15 -45 32 -45
22z"/>
<path d="M4038 773 c7 -3 16 -2 19 1 4 3 -2 6 -13 5 -11 0 -14 -3 -6 -6z"/>
<path d="M4105 770 c3 -5 -9 -17 -26 -26 l-32 -16 24 -19 c31 -24 60 -34 68
-23 3 5 17 10 29 12 13 1 35 11 49 22 23 18 24 20 7 22 -11 0 -25 2 -32 2 -7
1 -16 6 -20 12 -9 13 -75 28 -67 14z m-3 -52 c-9 -9 -15 -9 -24 0 -9 9 -7 12
12 12 19 0 21 -3 12 -12z"/>
<path d="M4605 770 c3 -5 8 -10 11 -10 2 0 4 5 4 10 0 6 -5 10 -11 10 -5 0 -7
-4 -4 -10z"/>
<path d="M4560 755 c0 -2 14 -13 30 -25 17 -12 30 -18 30 -13 0 4 -14 16 -30
25 -17 9 -30 15 -30 13z"/>
<path d="M3912 731 c-10 -6 9 -21 65 -51 115 -64 204 -110 211 -110 13 0 -35
28 -133 79 -111 58 -127 69 -119 82 7 11 -7 11 -24 0z"/>
<path d="M4416 729 c3 -6 -1 -10 -12 -9 -31 4 -44 1 -44 -10 0 -5 10 -9 23 -9
12 1 30 -2 41 -6 16 -7 17 -5 11 16 -5 18 -4 20 4 9 5 -8 13 -11 18 -7 8 9
-15 27 -35 27 -7 0 -10 -5 -6 -11z"/>
<path d="M4510 730 c8 -5 20 -10 25 -10 6 0 3 5 -5 10 -8 5 -19 10 -25 10 -5
0 -3 -5 5 -10z"/>
<path d="M4757 724 c-16 -9 -27 -18 -24 -20 3 -3 22 4 43 15 21 12 32 21 24
21 -8 -1 -28 -8 -43 -16z"/>
<path d="M4290 670 c-16 -16 -30 -36 -30 -43 0 -19 55 -42 72 -31 13 9 18 10
38 13 6 0 10 10 10 21 0 16 7 20 33 21 28 1 26 2 -17 12 -27 7 -51 18 -54 25
-6 19 -19 15 -52 -18z m40 -40 c0 -5 -4 -10 -10 -10 -5 0 -10 5 -10 10 0 6 5
10 10 10 6 0 10 -4 10 -10z m-30 -10 c0 -5 -4 -10 -10 -10 -5 0 -10 5 -10 10
0 6 5 10 10 10 6 0 10 -4 10 -10z"/>
<path d="M4570 695 c0 -3 7 -13 15 -21 21 -22 19 -27 -16 -43 -16 -7 -28 -15
-25 -18 2 -3 21 3 42 13 21 10 52 18 69 17 24 -1 25 0 6 4 -14 3 -40 16 -58
30 -18 14 -33 22 -33 18z"/>
<path d="M4656 687 c8 -5 27 -4 42 1 25 8 23 9 -15 8 -28 0 -37 -3 -27 -9z"/>
<path d="M4508 653 c7 -3 16 -2 19 1 4 3 -2 6 -13 5 -11 0 -14 -3 -6 -6z"/>
<path d="M4445 630 c-16 -11 -25 -20 -20 -20 6 0 24 9 40 20 17 11 26 20 20
20 -5 0 -23 -9 -40 -20z"/>
<path d="M4485 596 c-11 -7 -33 -18 -50 -24 -16 -6 -23 -11 -15 -11 8 -1 38
10 65 24 28 13 43 25 35 25 -9 0 -24 -6 -35 -14z"/>
<path d="M4230 555 c0 -9 59 -35 80 -35 26 0 95 28 87 36 -3 3 -19 -2 -36 -10
-37 -20 -70 -20 -95 -1 -20 15 -36 19 -36 10z"/>
<path d="M5856 887 c3 -10 9 -15 12 -12 3 3 0 11 -7 18 -10 9 -11 8 -5 -6z"/>
<path d="M5820 879 c0 -5 5 -7 10 -4 6 3 10 8 10 11 0 2 -4 4 -10 4 -5 0 -10
-5 -10 -11z"/>
<path d="M5972 860 c-10 -16 -10 -20 1 -20 14 0 37 20 37 32 0 16 -25 8 -38
-12z"/>
<path d="M6000 840 c0 -5 5 -10 10 -10 6 0 10 5 10 10 0 6 -4 10 -10 10 -5 0
-10 -4 -10 -10z"/>
<path d="M5765 800 c-3 -5 1 -10 9 -10 9 0 16 5 16 10 0 6 -4 10 -9 10 -6 0
-13 -4 -16 -10z"/>
<path d="M5760 760 c0 -5 4 -10 9 -10 6 0 13 5 16 10 3 6 -1 10 -9 10 -9 0
-16 -4 -16 -10z"/>
<path d="M3160 781 c0 -6 5 -13 12 -17 6 -4 8 -3 4 4 -3 5 0 13 6 15 8 3 6 6
-4 6 -10 1 -18 -3 -18 -8z"/>
<path d="M3200 765 c-7 -9 -8 -15 -2 -15 5 0 12 7 16 15 3 8 4 15 2 15 -2 0
-9 -7 -16 -15z"/>
<path d="M3244 745 c11 -8 29 -15 40 -15 25 0 19 4 -24 18 -32 11 -33 10 -16
-3z"/>
<path d="M3285 710 c3 -5 8 -10 11 -10 2 0 4 5 4 10 0 6 -5 10 -11 10 -5 0 -7
-4 -4 -10z"/>
<path d="M3390 650 c0 -5 7 -7 15 -4 8 4 15 8 15 10 0 2 -7 4 -15 4 -8 0 -15
-4 -15 -10z"/>
<path d="M2645 4700 c3 -5 8 -10 11 -10 2 0 4 5 4 10 0 6 -5 10 -11 10 -5 0
-7 -4 -4 -10z"/>
<path d="M2522 4575 c0 -16 2 -22 5 -12 2 9 2 23 0 30 -3 6 -5 -1 -5 -18z"/>
<path d="M2240 4141 c0 -21 22 -33 45 -25 19 8 19 14 -2 30 -26 19 -43 17 -43
-5z"/>
<path d="M2600 4080 c0 -5 5 -10 11 -10 5 0 7 5 4 10 -3 6 -8 10 -11 10 -2 0
-4 -4 -4 -10z"/>
<path d="M6225 4049 c-4 -6 -5 -12 -2 -15 2 -3 7 2 10 11 7 17 1 20 -8 4z"/>
<path d="M1967 3223 c-19 -5 -47 -52 -47 -81 0 -27 32 -52 66 -52 l28 0 -22
16 c-38 27 -26 85 23 112 19 11 19 11 -5 11 -14 -1 -33 -3 -43 -6z"/>
<path d="M3358 2840 c-4 -26 -1 -33 16 -40 29 -10 32 4 8 41 l-19 31 -5 -32z"/>
<path d="M3028 2513 c-25 -29 -33 -47 -17 -38 24 15 49 39 49 47 0 14 -16 9
-32 -9z"/>
<path d="M6376 1119 c-16 -22 -64 -83 -108 -136 -43 -52 -78 -98 -76 -101 8
-19 84 -127 91 -130 4 -2 7 -8 7 -13 0 -6 8 -22 19 -37 10 -15 40 -61 67 -102
26 -41 49 -77 51 -79 7 -10 34 27 71 99 22 41 49 91 61 110 11 19 30 54 42 77
11 23 27 47 35 54 10 9 11 16 2 33 -10 19 -72 98 -108 137 -8 9 -35 41 -60 72
-25 31 -49 56 -55 56 -5 0 -23 -18 -39 -40z m61 -114 c1 -55 2 -117 3 -137 0
-36 1 -37 30 -31 41 8 38 -5 -5 -23 l-35 -14 -2 -123 -2 -122 -3 122 -4 121
-72 28 c-113 42 -137 53 -137 59 0 3 31 43 68 88 37 45 83 102 101 125 31 40
35 42 45 25 6 -10 12 -63 13 -118z m116 -72 c-7 -2 -19 -2 -25 0 -7 3 -2 5 12
5 14 0 19 -2 13 -5z m-48 -13 c3 -5 -1 -10 -10 -10 -9 0 -13 5 -10 10 3 6 8
10 10 10 2 0 7 -4 10 -10z"/>
<path d="M6285 950 c-4 -6 5 -10 19 -10 14 0 26 5 26 10 0 6 -9 10 -19 10 -11
0 -23 -4 -26 -10z"/>
<path d="M6365 926 c17 -7 34 -11 40 -8 5 4 -1 9 -15 13 -42 12 -57 9 -25 -5z"/>
<path d="M6278 913 c6 -2 18 -2 25 0 6 3 1 5 -13 5 -14 0 -19 -2 -12 -5z"/>
</g>
</svg>
